<svg xmlns="http://www.w3.org/2000/svg" xmlns:xlink="http://www.w3.org/1999/xlink" width="113" height="113" viewBox="0 0 113 113">
  <defs>
    <filter id="Path_982547" x="0" y="0" width="113" height="113" filterUnits="userSpaceOnUse">
      <feOffset dy="3" input="SourceAlpha"/>
      <feGaussianBlur stdDeviation="3" result="blur"/>
      <feFlood flood-opacity="0.161"/>
      <feComposite operator="in" in2="blur"/>
      <feComposite in="SourceGraphic"/>
    </filter>
  </defs>
  <g id="Group_1182338" data-name="Group 1182338" transform="translate(-196 -8893)">
    <g id="Group_1182296" data-name="Group 1182296" transform="translate(0 25)">
      <g id="Group_1180298" data-name="Group 1180298" transform="translate(22 3193)">
        <g id="Group_1173622" data-name="Group 1173622" transform="translate(-22 3581)">
          <g id="Group_1172087" data-name="Group 1172087" transform="translate(205 2100)">
            <g id="Group_1171485" data-name="Group 1171485">
              <g id="Group_1167519" data-name="Group 1167519" transform="translate(0)">
                <g id="Group_1166845" data-name="Group 1166845">
                  <g id="Group_1166720" data-name="Group 1166720">
                    <g id="Group_1164305" data-name="Group 1164305">
                      <g id="Group_1163948" data-name="Group 1163948">
                        <g id="Group_1158168" data-name="Group 1158168">
                          <g id="Group_1152576" data-name="Group 1152576">
                            <g id="Group_1148633" data-name="Group 1148633">
                              <g id="Group_1148525" data-name="Group 1148525">
                                <g transform="matrix(1, 0, 0, 1, -9, -6)" filter="url(#Path_982547)">
                                  <g id="Path_982547-2" data-name="Path 982547" transform="translate(9 6)" fill="#fdf6ea">
                                    <path d="M 47.5 93.5 C 41.28937149047852 93.5 35.26533508300781 92.28397369384766 29.59518623352051 89.88570404052734 C 24.11771965026855 87.56893157958984 19.19813346862793 84.25196075439453 14.97309303283691 80.02691650390625 C 10.74804019927979 75.80186462402344 7.431066513061523 70.88229370117188 5.114293098449707 65.40481567382812 C 2.716026782989502 59.73468017578125 1.5 53.71062850952148 1.5 47.5 C 1.5 41.28937149047852 2.716026782989502 35.26533508300781 5.114293098449707 29.59518623352051 C 7.431066513061523 24.11771965026855 10.74804019927979 19.19813346862793 14.97309303283691 14.97309303283691 C 19.19813346862793 10.74804019927979 24.11771965026855 7.431066513061523 29.59518623352051 5.114293098449707 C 35.26533508300781 2.716026782989502 41.28937149047852 1.5 47.5 1.5 C 53.71062850952148 1.5 59.73468017578125 2.716026782989502 65.40481567382812 5.114293098449707 C 70.88229370117188 7.431066513061523 75.80186462402344 10.74804019927979 80.02691650390625 14.97309303283691 C 84.25196075439453 19.19813346862793 87.56893157958984 24.11771965026855 89.88570404052734 29.59518623352051 C 92.28397369384766 35.26533508300781 93.5 41.28937149047852 93.5 47.5 C 93.5 53.71062850952148 92.28397369384766 59.73468017578125 89.88570404052734 65.40481567382812 C 87.56893157958984 70.88229370117188 84.25196075439453 75.80186462402344 80.02691650390625 80.02691650390625 C 75.80186462402344 84.25196075439453 70.88229370117188 87.56893157958984 65.40481567382812 89.88570404052734 C 59.73468017578125 92.28397369384766 53.71062850952148 93.5 47.5 93.5 Z" stroke="none"/>
                                    <path d="M 47.5 3 C 41.49121475219727 3 35.66376876831055 4.176155090332031 30.17950439453125 6.495796203613281 C 24.88084411621094 8.736953735351562 20.12152099609375 11.94598388671875 16.03375244140625 16.03375244140625 C 11.94598388671875 20.12152099609375 8.736953735351562 24.88084411621094 6.495796203613281 30.17950439453125 C 4.176155090332031 35.66376876831055 3 41.49121475219727 3 47.5 C 3 53.50878524780273 4.176155090332031 59.33623123168945 6.495796203613281 64.82049560546875 C 8.736953735351562 70.11915588378906 11.94598388671875 74.87847900390625 16.03375244140625 78.96624755859375 C 20.12152099609375 83.05401611328125 24.88084411621094 86.26304626464844 30.17950439453125 88.50419616699219 C 35.66376876831055 90.82384490966797 41.49121475219727 92 47.5 92 C 53.50878524780273 92 59.33623123168945 90.82384490966797 64.82049560546875 88.50419616699219 C 70.11915588378906 86.26304626464844 74.87847900390625 83.05401611328125 78.96624755859375 78.96624755859375 C 83.05401611328125 74.87847900390625 86.26304626464844 70.11915588378906 88.50419616699219 64.82049560546875 C 90.82384490966797 59.33623123168945 92 53.50878524780273 92 47.5 C 92 41.49121475219727 90.82384490966797 35.66376876831055 88.50419616699219 30.17950439453125 C 86.26304626464844 24.88084411621094 83.05401611328125 20.12152099609375 78.96624755859375 16.03375244140625 C 74.87847900390625 11.94598388671875 70.11915588378906 8.736953735351562 64.82049560546875 6.495796203613281 C 59.33623123168945 4.176155090332031 53.50878524780273 3 47.5 3 M 47.5 0 C 73.7335205078125 0 95 21.2664794921875 95 47.5 C 95 73.7335205078125 73.7335205078125 95 47.5 95 C 21.2664794921875 95 0 73.7335205078125 0 47.5 C 0 21.2664794921875 21.2664794921875 0 47.5 0 Z" stroke="none" fill="#edae3b"/>
                                  </g>
                                </g>
                              </g>
                            </g>
                          </g>
                        </g>
                      </g>
                    </g>
                  </g>
                </g>
              </g>
            </g>
          </g>
        </g>
      </g>
      <g id="personas_1_" data-name="personas (1)" transform="translate(223 8858.936)">
        <g id="Group_1182294" data-name="Group 1182294" transform="translate(0.877 32.941)">
          <path id="Path_1042157" data-name="Path 1042157" d="M332.055,342.807l-4.593-1.531a1.876,1.876,0,0,1-1.282-1.779V336.16h-4.957V339.5c0,.807-1.187,1.524-1.953,1.779l-4.593,1.531a3.751,3.751,0,0,0-2.565,3.559v2.923H334.62v-2.923A3.751,3.751,0,0,0,332.055,342.807Z" transform="translate(-276.477 -301.462)" fill="#fbbd80"/>
          <path id="Path_1042158" data-name="Path 1042158" d="M380.205,339.5V336.16h-5.627V339.5a1.876,1.876,0,0,1-1.282,1.779l.89,2.669a4.665,4.665,0,0,0,2.613-2.183,1.755,1.755,0,0,1,1.365-.945,8.293,8.293,0,0,0,2.236-.536A1.842,1.842,0,0,1,380.205,339.5Z" transform="translate(-330.502 -301.462)" fill="#f4aa73"/>
          <path id="Path_1042159" data-name="Path 1042159" d="M332.056,383.7l-3.687-1.229-3.961,2.641a1.876,1.876,0,0,1-2.081,0l-3.961-2.641-3.687,1.229a3.751,3.751,0,0,0-2.565,3.559v2.923L321.492,393h13.129v-5.737A3.751,3.751,0,0,0,332.056,383.7Z" transform="translate(-276.477 -342.359)" fill="#b8b2b8"/>
          <path id="Path_1042160" data-name="Path 1042160" d="M319.864,383.953a3.71,3.71,0,0,0,.44-.184l-1.94-1.293-3.687,1.229a3.751,3.751,0,0,0-2.565,3.559v2.923a2.805,2.805,0,0,0,1.876,2.641v-5.564a1.872,1.872,0,0,1,1.283-1.779Z" transform="translate(-276.476 -342.359)" fill="#4e3d4d"/>
          <path id="Path_1042161" data-name="Path 1042161" d="M360.633,231.951h-3.751a4.689,4.689,0,0,0-4.689,4.689v.549a3.2,3.2,0,0,0,.938,2.264h11.254a3.2,3.2,0,0,0,.938-2.264v-.549A4.689,4.689,0,0,0,360.633,231.951Z" transform="translate(-311.868 -209.444)" fill="#d48c64"/>
          <path id="Path_1042162" data-name="Path 1042162" d="M355.944,232.759a4.69,4.69,0,0,0-3.751,4.594v.549a3.2,3.2,0,0,0,.938,2.264h2.813v-7.408Z" transform="translate(-311.868 -210.157)" fill="#c6805d"/>
          <path id="Path_1042163" data-name="Path 1042163" d="M360.627,275.092,362.259,274a1.876,1.876,0,0,1,1.633-.219l7.57,2.523v.938a5.627,5.627,0,0,1-11.254,0v-1.374A.938.938,0,0,1,360.627,275.092Z" transform="translate(-318.946 -246.298)" fill="#ffd18d"/>
          <path id="Path_1042164" data-name="Path 1042164" d="M363.023,277.425v-3.534a1.871,1.871,0,0,0-.763.291l-1.632,1.088a.938.938,0,0,0-.418.78v1.374a5.607,5.607,0,0,0,7.034,5.443A5.624,5.624,0,0,1,363.023,277.425Z" transform="translate(-318.947 -246.477)" fill="#fbbd80"/>
          <path id="Path_1042165" data-name="Path 1042165" d="M27.442,342.807l-4.593-1.531c-.766-.255-1.678-.972-1.678-1.779l.4-3.337H15.94V339.5a1.876,1.876,0,0,1-1.282,1.779l-4.593,1.531A3.751,3.751,0,0,0,7.5,346.366v2.923l22.507-.011v-2.913A3.751,3.751,0,0,0,27.442,342.807Z" transform="translate(-7.5 -301.462)" fill="#af6e4d"/>
          <path id="Path_1042166" data-name="Path 1042166" d="M75.592,339.5V336.16H69.965V339.5a1.876,1.876,0,0,1-1.282,1.779l.891,2.669a4.665,4.665,0,0,0,2.613-2.183,1.755,1.755,0,0,1,1.365-.945,8.293,8.293,0,0,0,2.236-.536A1.842,1.842,0,0,1,75.592,339.5Z" transform="translate(-61.525 -301.462)" fill="#845252"/>
          <path id="Path_1042167" data-name="Path 1042167" d="M27.442,383.7l-3.687-1.229-3.961,2.641a1.876,1.876,0,0,1-2.081,0l-3.961-2.641L10.065,383.7A3.751,3.751,0,0,0,7.5,387.264L10.313,393H20.629l9.378-5.737A3.751,3.751,0,0,0,27.442,383.7Z" transform="translate(-7.5 -342.359)" fill="#887f88"/>
          <path id="Path_1042168" data-name="Path 1042168" d="M56.02,231.951H52.269a4.689,4.689,0,0,0-4.689,4.689v.549a3.2,3.2,0,0,0,.938,2.264H59.771a3.2,3.2,0,0,0,.938-2.264v-.549A4.689,4.689,0,0,0,56.02,231.951Z" transform="translate(-42.891 -209.444)" fill="#615260"/>
          <path id="Path_1042169" data-name="Path 1042169" d="M51.331,232.759a4.69,4.69,0,0,0-3.751,4.594v.549a3.2,3.2,0,0,0,.938,2.264h2.813v-7.408Z" transform="translate(-42.891 -210.157)" fill="#4e3d4d"/>
          <path id="Path_1042170" data-name="Path 1042170" d="M56.014,275.092,57.646,274a1.876,1.876,0,0,1,1.634-.219l7.57,2.523v.938a5.627,5.627,0,0,1-11.254,0v-1.374A.938.938,0,0,1,56.014,275.092Z" transform="translate(-49.969 -246.298)" fill="#c6805d"/>
          <path id="Path_1042171" data-name="Path 1042171" d="M58.41,277.425v-3.534a1.872,1.872,0,0,0-.763.291l-1.632,1.088a.938.938,0,0,0-.418.78v1.374a5.607,5.607,0,0,0,7.034,5.443A5.624,5.624,0,0,1,58.41,277.425Z" transform="translate(-49.97 -246.477)" fill="#af6e4d"/>
          <path id="Path_1042172" data-name="Path 1042172" d="M149.045,290.446l-6.765-2.255a2.813,2.813,0,0,1-1.924-2.669v-5.475h-9.378v5.475a2.814,2.814,0,0,1-1.924,2.669l-6.765,2.255A3.751,3.751,0,0,0,119.725,294v5.736a2.813,2.813,0,0,0,2.813,2.813H148.8a2.813,2.813,0,0,0,2.813-2.813V294A3.751,3.751,0,0,0,149.045,290.446Z" transform="translate(-106.596 -251.913)" fill="#e29a6c"/>
          <path id="Path_1042173" data-name="Path 1042173" d="M201.4,280.048v5.475a2.813,2.813,0,0,1-1.924,2.669l.889,2.669a5.636,5.636,0,0,0,3.64-3.805,1.912,1.912,0,0,1,1.9-1.382,11.959,11.959,0,0,0,4.872-.957v-4.669H201.4Z" transform="translate(-177.017 -251.914)" fill="#d48c64"/>
          <path id="Path_1042174" data-name="Path 1042174" d="M205.15,345.79l-5.125,4.956a.938.938,0,0,1-1.3,0L193.6,345.79l-1.726,5.438,4.689,9.378h5.627l4.689-9.378Z" transform="translate(-170.302 -309.965)" fill="#eceaec"/>
          <path id="Path_1042175" data-name="Path 1042175" d="M200.1,348.195l.519-.173a4.662,4.662,0,0,0,1.593-.927l-1.349-1.3Z" transform="translate(-177.567 -309.965)" fill="#dbd8db"/>
          <path id="Path_1042176" data-name="Path 1042176" d="M129.892,345.79a2.8,2.8,0,0,1-.836.453l-6.765,2.255a3.751,3.751,0,0,0-2.565,3.559l2.813,8.55H129.1Z" transform="translate(-106.597 -309.965)" fill="#615260"/>
          <path id="Path_1042177" data-name="Path 1042177" d="M122.54,352.057a.938.938,0,0,1,.642-.891l6.762-2.255a5.153,5.153,0,0,0,.528-.223l-.58-2.9a2.8,2.8,0,0,1-.836.453l-6.765,2.255a3.751,3.751,0,0,0-2.565,3.559v8.55h2.813v-8.549Z" transform="translate(-106.598 -309.965)" fill="#4e3d4d"/>
          <circle id="Ellipse_13107" data-name="Ellipse 13107" cx="6.565" cy="6.565" r="6.565" transform="translate(22.507 0)" fill="#845252"/>
          <path id="Path_1042178" data-name="Path 1042178" d="M160.655,106.417h-7.5a9.378,9.378,0,1,1,0-18.756h7.5a9.378,9.378,0,1,1,0,18.756Z" transform="translate(-127.832 -82.034)" fill="#70393c"/>
          <path id="Path_1042179" data-name="Path 1042179" d="M185.217,169.608a9.378,9.378,0,0,1-9.378-9.378v-1.876a6.565,6.565,0,0,1,6.565-6.565H194.6v8.44A9.378,9.378,0,0,1,185.217,169.608Z" transform="translate(-156.145 -138.661)" fill="#f4aa73"/>
          <path id="Path_1042180" data-name="Path 1042180" d="M179.59,160.23v-2.813a5.627,5.627,0,0,1,5.627-5.627H182.4a6.565,6.565,0,0,0-6.565,6.565v1.876a9.383,9.383,0,0,0,11.254,9.19A9.381,9.381,0,0,1,179.59,160.23Z" transform="translate(-156.145 -138.661)" fill="#e29a6c"/>
          <path id="Path_1042181" data-name="Path 1042181" d="M204.317,97.039a9.378,9.378,0,0,0-9.378-9.378h-7.5a9.319,9.319,0,0,0-4.836,1.354c1.511,3.48,5.584,9.794,15.448,10.722a2.8,2.8,0,0,1,2.517,2.794v2a9.354,9.354,0,0,0,3.751-7.49Z" transform="translate(-162.116 -82.034)" fill="#7a4646"/>
          <path id="Path_1042182" data-name="Path 1042182" d="M166.976,345.79a2.8,2.8,0,0,1-.836.453l-2.544.848-1.67,3.3a1.876,1.876,0,0,0,0,1.687l4.267,8.534h3.751Z" transform="translate(-143.681 -309.965)" fill="#736572"/>
          <path id="Path_1042183" data-name="Path 1042183" d="M305.377,345.79a2.8,2.8,0,0,0,.836.453l6.765,2.255a3.751,3.751,0,0,1,2.565,3.559v8.55h-9.378Z" transform="translate(-270.529 -309.965)" fill="#615260"/>
          <g id="Group_1182293" data-name="Group 1182293" transform="translate(0 35.825)">
            <path id="Path_1042184" data-name="Path 1042184" d="M283.01,345.79a2.8,2.8,0,0,0,.836.453l2.544.848,1.67,3.3a1.875,1.875,0,0,1,0,1.687l-4.267,8.534h-3.751Z" transform="translate(-248.162 -345.79)" fill="#736572"/>
            <path id="Path_1042185" data-name="Path 1042185" d="M10.313,387.263a.935.935,0,0,1,.642-.889l4.593-1.531a4.662,4.662,0,0,0,.552-.229l.5-.241-2.845-1.9L10.065,383.7A3.751,3.751,0,0,0,7.5,387.263V393h2.813Z" transform="translate(-7.5 -378.183)" fill="#736572"/>
          </g>
        </g>
        <g id="Group_1182295" data-name="Group 1182295" transform="translate(0 32.064)">
          <path id="Path_1042186" data-name="Path 1042186" d="M142.7,70.642l-6.765-2.255a1.933,1.933,0,0,1-1.324-1.837V63.12a10.272,10.272,0,0,0,4.586-7.161,10.256,10.256,0,0,0-2.8-17.616,7.441,7.441,0,0,0-14.7,0,10.256,10.256,0,0,0-2.8,17.616,10.272,10.272,0,0,0,4.586,7.161v3.43a1.933,1.933,0,0,1-1.324,1.837l-6.765,2.255a4.623,4.623,0,0,0-3.165,4.391v8.55a.877.877,0,0,0,1.755,0v-8.55a2.87,2.87,0,0,1,1.965-2.726l2.178-.726-.7,1.393a2.766,2.766,0,0,0,0,2.462l4.27,8.539a.877.877,0,1,0,1.57-.785L119,74.651a1,1,0,0,1,0-.893l1.479-2.962,2.161-.72,2.736,13.678a.877.877,0,0,0,1.721-.344L124.67,71.3l3.775,3.549a.877.877,0,0,0,1.2,0l3.775-3.549L131,83.411a.877.877,0,1,0,1.721.344l2.736-13.678,2.16.72,1.48,2.962a1,1,0,0,1,0,.893l-4.27,8.539a.877.877,0,1,0,1.57.785l4.27-8.539a2.766,2.766,0,0,0,0-2.462l-.7-1.393,2.178.726a2.87,2.87,0,0,1,1.965,2.726v8.55a.877.877,0,0,0,1.755,0v-8.55A4.623,4.623,0,0,0,142.7,70.642ZM129.046,33.819a5.718,5.718,0,0,1,5.434,4.011,10.274,10.274,0,0,0-1.683-.139h-7.5a10.273,10.273,0,0,0-1.683.139,5.718,5.718,0,0,1,5.434-4.011Zm-8.5,20.692V52.474a5.49,5.49,0,0,1,1.619-3.908.877.877,0,0,0-1.241-1.241,7.233,7.233,0,0,0-2.133,5.149v.951a8.5,8.5,0,0,1,1.223-12.132,18.016,18.016,0,0,0,11.908,9.531.877.877,0,0,0,.456-1.695,16.892,16.892,0,0,1-8.637-5.331,14.3,14.3,0,0,1-2.229-3.461,8.446,8.446,0,0,1,3.784-.892h7.5a8.51,8.51,0,0,1,8.5,8.5,8.425,8.425,0,0,1-2,5.479,3.659,3.659,0,0,0-3.318-3.655.877.877,0,1,0-.165,1.747,1.936,1.936,0,0,1,1.729,1.921v1.074a8.5,8.5,0,1,1-17,0Zm8.5,18.49-4.532-4.26a3.684,3.684,0,0,0,.72-2.19V64.031a10.252,10.252,0,0,0,7.623,0V66.55a3.684,3.684,0,0,0,.72,2.19Z" transform="translate(-99.097 -32.064)"/>
          <path id="Path_1042187" data-name="Path 1042187" d="M10.2,240.857v-.878a6.506,6.506,0,0,0,8.44-6.21v-.6a4.048,4.048,0,0,0,.938-2.6v-.549a5.573,5.573,0,0,0-5.566-5.566H10.255a5.573,5.573,0,0,0-5.566,5.566v.549a4.048,4.048,0,0,0,.938,2.6v.6A6.5,6.5,0,0,0,8.44,239.12v1.737a1,1,0,0,1-.683.947l-4.593,1.531A4.623,4.623,0,0,0,0,247.726v5.736a.877.877,0,0,0,1.755,0v-5.736A2.87,2.87,0,0,1,3.72,245L7,243.906l2.769,1.846a.877.877,0,0,0,.973-1.46L9,243.128A2.748,2.748,0,0,0,10.2,240.857Zm-3.751-10.84a3.816,3.816,0,0,1,3.812-3.812h3.751a3.816,3.816,0,0,1,3.812,3.812v.549a2.307,2.307,0,0,1-.36,1.239L9.6,229.185a.878.878,0,0,0-.764.1l-2.366,1.577a2.35,2.35,0,0,1-.021-.3v-.549Zm.938,3.751v-1.406l2.066-1.377,7.433,2.478v.305a4.749,4.749,0,0,1-9.5,0Z" transform="translate(0 -201.944)"/>
          <path id="Path_1042188" data-name="Path 1042188" d="M40.958,432.87a.877.877,0,0,0-.877.877V437.5a.877.877,0,0,0,1.755,0v-3.751A.877.877,0,0,0,40.958,432.87Z" transform="translate(-35.392 -385.98)"/>
          <path id="Path_1042189" data-name="Path 1042189" d="M361.1,243.335l-4.593-1.531a1,1,0,0,1-.683-.947V239.12a6.5,6.5,0,0,0,2.813-5.352v-.6a4.048,4.048,0,0,0,.938-2.6v-.549a5.573,5.573,0,0,0-5.567-5.566h-3.751a5.573,5.573,0,0,0-5.566,5.566v.549a4.048,4.048,0,0,0,.938,2.6v.6a6.506,6.506,0,0,0,8.44,6.21v.878a2.748,2.748,0,0,0,1.2,2.271l-1.746,1.164a.877.877,0,1,0,.973,1.46l2.769-1.846,3.28,1.093a2.87,2.87,0,0,1,1.965,2.726v5.736a.877.877,0,0,0,1.755,0v-5.736A4.623,4.623,0,0,0,361.1,243.335Zm-14.653-13.317a3.816,3.816,0,0,1,3.812-3.812h3.751a3.816,3.816,0,0,1,3.812,3.812v.549a2.307,2.307,0,0,1-.36,1.239l-7.864-2.621a.878.878,0,0,0-.764.1l-2.366,1.577a2.348,2.348,0,0,1-.021-.3Zm.938,3.751v-1.406l2.066-1.377,7.433,2.478v.305a4.749,4.749,0,0,1-9.5,0Z" transform="translate(-304.368 -201.944)"/>
          <path id="Path_1042190" data-name="Path 1042190" d="M457.8,432.87a.877.877,0,0,0-.877.877V437.5a.877.877,0,1,0,1.755,0v-3.751A.877.877,0,0,0,457.8,432.87Z" transform="translate(-403.464 -385.98)"/>
        </g>
      </g>
    </g>
  </g>
</svg>
