<svg xmlns="http://www.w3.org/2000/svg" xmlns:xlink="http://www.w3.org/1999/xlink" width="113" height="113" viewBox="0 0 113 113">
  <defs>
    <filter id="Path_982547" x="0" y="0" width="113" height="113" filterUnits="userSpaceOnUse">
      <feOffset dy="3" input="SourceAlpha"/>
      <feGaussianBlur stdDeviation="3" result="blur"/>
      <feFlood flood-opacity="0.161"/>
      <feComposite operator="in" in2="blur"/>
      <feComposite in="SourceGraphic"/>
    </filter>
  </defs>
  <g id="Group_1182329" data-name="Group 1182329" transform="translate(-743 -7752)">
    <g id="Group_1182285" data-name="Group 1182285" transform="translate(0 17)">
      <g id="Group_1180117" data-name="Group 1180117" transform="translate(752 7741)">
        <g id="Group_1172831" data-name="Group 1172831">
          <g id="Group_1172151" data-name="Group 1172151">
            <g id="Group_1171046" data-name="Group 1171046">
              <g id="Group_1148525" data-name="Group 1148525">
                <g transform="matrix(1, 0, 0, 1, -9, -6)" filter="url(#Path_982547)">
                  <g id="Path_982547-2" data-name="Path 982547" transform="translate(9 6)" fill="#f2f7f5">
                    <path d="M 47.5 93.5 C 41.28937149047852 93.5 35.26533508300781 92.28397369384766 29.59518623352051 89.88570404052734 C 24.11771965026855 87.56893157958984 19.19813346862793 84.25196075439453 14.97309303283691 80.02691650390625 C 10.74804019927979 75.80186462402344 7.431066513061523 70.88229370117188 5.114293098449707 65.40481567382812 C 2.716026782989502 59.73468017578125 1.5 53.71062850952148 1.5 47.5 C 1.5 41.28937149047852 2.716026782989502 35.26533508300781 5.114293098449707 29.59518623352051 C 7.431066513061523 24.11771965026855 10.74804019927979 19.19813346862793 14.97309303283691 14.97309303283691 C 19.19813346862793 10.74804019927979 24.11771965026855 7.431066513061523 29.59518623352051 5.114293098449707 C 35.26533508300781 2.716026782989502 41.28937149047852 1.5 47.5 1.5 C 53.71062850952148 1.5 59.73468017578125 2.716026782989502 65.40481567382812 5.114293098449707 C 70.88229370117188 7.431066513061523 75.80186462402344 10.74804019927979 80.02691650390625 14.97309303283691 C 84.25196075439453 19.19813346862793 87.56893157958984 24.11771965026855 89.88570404052734 29.59518623352051 C 92.28397369384766 35.26533508300781 93.5 41.28937149047852 93.5 47.5 C 93.5 53.71062850952148 92.28397369384766 59.73468017578125 89.88570404052734 65.40481567382812 C 87.56893157958984 70.88229370117188 84.25196075439453 75.80186462402344 80.02691650390625 80.02691650390625 C 75.80186462402344 84.25196075439453 70.88229370117188 87.56893157958984 65.40481567382812 89.88570404052734 C 59.73468017578125 92.28397369384766 53.71062850952148 93.5 47.5 93.5 Z" stroke="none"/>
                    <path d="M 47.5 3 C 41.49121475219727 3 35.66376876831055 4.176155090332031 30.17950439453125 6.495796203613281 C 24.88084411621094 8.736953735351562 20.12152099609375 11.94598388671875 16.03375244140625 16.03375244140625 C 11.94598388671875 20.12152099609375 8.736953735351562 24.88084411621094 6.495796203613281 30.17950439453125 C 4.176155090332031 35.66376876831055 3 41.49121475219727 3 47.5 C 3 53.50878524780273 4.176155090332031 59.33623123168945 6.495796203613281 64.82049560546875 C 8.736953735351562 70.11915588378906 11.94598388671875 74.87847900390625 16.03375244140625 78.96624755859375 C 20.12152099609375 83.05401611328125 24.88084411621094 86.26304626464844 30.17950439453125 88.50419616699219 C 35.66376876831055 90.82384490966797 41.49121475219727 92 47.5 92 C 53.50878524780273 92 59.33623123168945 90.82384490966797 64.82049560546875 88.50419616699219 C 70.11915588378906 86.26304626464844 74.87847900390625 83.05401611328125 78.96624755859375 78.96624755859375 C 83.05401611328125 74.87847900390625 86.26304626464844 70.11915588378906 88.50419616699219 64.82049560546875 C 90.82384490966797 59.33623123168945 92 53.50878524780273 92 47.5 C 92 41.49121475219727 90.82384490966797 35.66376876831055 88.50419616699219 30.17950439453125 C 86.26304626464844 24.88084411621094 83.05401611328125 20.12152099609375 78.96624755859375 16.03375244140625 C 74.87847900390625 11.94598388671875 70.11915588378906 8.736953735351562 64.82049560546875 6.495796203613281 C 59.33623123168945 4.176155090332031 53.50878524780273 3 47.5 3 M 47.5 0 C 73.7335205078125 0 95 21.2664794921875 95 47.5 C 95 73.7335205078125 73.7335205078125 95 47.5 95 C 21.2664794921875 95 0 73.7335205078125 0 47.5 C 0 21.2664794921875 21.2664794921875 0 47.5 0 Z" stroke="none" fill="#4a665c"/>
                  </g>
                </g>
              </g>
            </g>
          </g>
        </g>
      </g>
      <g id="cheque" transform="translate(768 7701.015)">
        <path id="Path_1042130" data-name="Path 1042130" d="M59.266,73.084,31.878,100.472a1.89,1.89,0,0,1-2.673,0l-11.79-11.79L8.1,98l17.784,17.784a6.587,6.587,0,0,0,4.658,1.929h0a6.587,6.587,0,0,0,4.658-1.929L68.582,82.4Z" transform="translate(-7.111 -7.111)" fill="#a5eb78"/>
        <g id="Group_1182284" data-name="Group 1182284" transform="translate(19.622 72.208)" opacity="0.1">
          <path id="Path_1042131" data-name="Path 1042131" d="M199.62,124.2l-35.242,35.242a7.211,7.211,0,0,1-3.526,1.936,6.586,6.586,0,0,0,3.808,1.214h0a6.587,6.587,0,0,0,4.658-1.929L202.7,127.276Z" transform="translate(-160.852 -124.196)"/>
        </g>
        <path id="Path_1042132" data-name="Path 1042132" d="M23.43,223.854a7.526,7.526,0,0,1-5.357-2.219L.289,203.85a.988.988,0,0,1,0-1.4l9.316-9.316a.988.988,0,0,1,1.4,0l3.5,3.5a.988.988,0,0,1-1.4,1.4l-2.8-2.8-7.919,7.918,17.086,17.086a5.6,5.6,0,0,0,7.919,0L50.2,197.431a.988.988,0,1,1,1.4,1.4L28.787,221.635A7.527,7.527,0,0,1,23.43,223.854Z" transform="translate(0 -112.265)"/>
        <path id="Path_1042133" data-name="Path 1042133" d="M135.766,94.9a2.859,2.859,0,0,1-2.035-.843l-5.5-5.5a.988.988,0,0,1,1.4-1.4l5.5,5.5a.9.9,0,0,0,1.276,0l27.388-27.388a.988.988,0,0,1,1.4,0l9.316,9.316a.988.988,0,0,1,0,1.4l-7.781,7.781a.988.988,0,0,1-1.4-1.4l7.083-7.083-7.918-7.918L137.8,94.059A2.86,2.86,0,0,1,135.766,94.9Z" transform="translate(-112.336)"/>
      </g>
    </g>
  </g>
</svg>
