<svg xmlns="http://www.w3.org/2000/svg" xmlns:xlink="http://www.w3.org/1999/xlink" width="113" height="113" viewBox="0 0 113 113">
  <defs>
    <filter id="Path_982547" x="0" y="0" width="113" height="113" filterUnits="userSpaceOnUse">
      <feOffset dy="3" input="SourceAlpha"/>
      <feGaussianBlur stdDeviation="3" result="blur"/>
      <feFlood flood-opacity="0.161"/>
      <feComposite operator="in" in2="blur"/>
      <feComposite in="SourceGraphic"/>
    </filter>
  </defs>
  <g id="Group_1182330" data-name="Group 1182330" transform="translate(-1163 -7752)">
    <g id="Group_1182286" data-name="Group 1182286" transform="translate(0 17)">
      <g id="Group_1180118" data-name="Group 1180118" transform="translate(1172 7741)">
        <g id="Group_1172831" data-name="Group 1172831">
          <g id="Group_1172151" data-name="Group 1172151">
            <g id="Group_1171046" data-name="Group 1171046">
              <g id="Group_1148525" data-name="Group 1148525">
                <g transform="matrix(1, 0, 0, 1, -9, -6)" filter="url(#Path_982547)">
                  <g id="Path_982547-2" data-name="Path 982547" transform="translate(9 6)" fill="#f2f7f5">
                    <path d="M 47.5 93.5 C 41.28937149047852 93.5 35.26533508300781 92.28397369384766 29.59518623352051 89.88570404052734 C 24.11771965026855 87.56893157958984 19.19813346862793 84.25196075439453 14.97309303283691 80.02691650390625 C 10.74804019927979 75.80186462402344 7.431066513061523 70.88229370117188 5.114293098449707 65.40481567382812 C 2.716026782989502 59.73468017578125 1.5 53.71062850952148 1.5 47.5 C 1.5 41.28937149047852 2.716026782989502 35.26533508300781 5.114293098449707 29.59518623352051 C 7.431066513061523 24.11771965026855 10.74804019927979 19.19813346862793 14.97309303283691 14.97309303283691 C 19.19813346862793 10.74804019927979 24.11771965026855 7.431066513061523 29.59518623352051 5.114293098449707 C 35.26533508300781 2.716026782989502 41.28937149047852 1.5 47.5 1.5 C 53.71062850952148 1.5 59.73468017578125 2.716026782989502 65.40481567382812 5.114293098449707 C 70.88229370117188 7.431066513061523 75.80186462402344 10.74804019927979 80.02691650390625 14.97309303283691 C 84.25196075439453 19.19813346862793 87.56893157958984 24.11771965026855 89.88570404052734 29.59518623352051 C 92.28397369384766 35.26533508300781 93.5 41.28937149047852 93.5 47.5 C 93.5 53.71062850952148 92.28397369384766 59.73468017578125 89.88570404052734 65.40481567382812 C 87.56893157958984 70.88229370117188 84.25196075439453 75.80186462402344 80.02691650390625 80.02691650390625 C 75.80186462402344 84.25196075439453 70.88229370117188 87.56893157958984 65.40481567382812 89.88570404052734 C 59.73468017578125 92.28397369384766 53.71062850952148 93.5 47.5 93.5 Z" stroke="none"/>
                    <path d="M 47.5 3 C 41.49121475219727 3 35.66376876831055 4.176155090332031 30.17950439453125 6.495796203613281 C 24.88084411621094 8.736953735351562 20.12152099609375 11.94598388671875 16.03375244140625 16.03375244140625 C 11.94598388671875 20.12152099609375 8.736953735351562 24.88084411621094 6.495796203613281 30.17950439453125 C 4.176155090332031 35.66376876831055 3 41.49121475219727 3 47.5 C 3 53.50878524780273 4.176155090332031 59.33623123168945 6.495796203613281 64.82049560546875 C 8.736953735351562 70.11915588378906 11.94598388671875 74.87847900390625 16.03375244140625 78.96624755859375 C 20.12152099609375 83.05401611328125 24.88084411621094 86.26304626464844 30.17950439453125 88.50419616699219 C 35.66376876831055 90.82384490966797 41.49121475219727 92 47.5 92 C 53.50878524780273 92 59.33623123168945 90.82384490966797 64.82049560546875 88.50419616699219 C 70.11915588378906 86.26304626464844 74.87847900390625 83.05401611328125 78.96624755859375 78.96624755859375 C 83.05401611328125 74.87847900390625 86.26304626464844 70.11915588378906 88.50419616699219 64.82049560546875 C 90.82384490966797 59.33623123168945 92 53.50878524780273 92 47.5 C 92 41.49121475219727 90.82384490966797 35.66376876831055 88.50419616699219 30.17950439453125 C 86.26304626464844 24.88084411621094 83.05401611328125 20.12152099609375 78.96624755859375 16.03375244140625 C 74.87847900390625 11.94598388671875 70.11915588378906 8.736953735351562 64.82049560546875 6.495796203613281 C 59.33623123168945 4.176155090332031 53.50878524780273 3 47.5 3 M 47.5 0 C 73.7335205078125 0 95 21.2664794921875 95 47.5 C 95 73.7335205078125 73.7335205078125 95 47.5 95 C 21.2664794921875 95 0 73.7335205078125 0 47.5 C 0 21.2664794921875 21.2664794921875 0 47.5 0 Z" stroke="none" fill="#4a665c"/>
                  </g>
                </g>
              </g>
            </g>
          </g>
        </g>
      </g>
      <g id="hablar" transform="translate(1188 7763.999)">
        <path id="Path_1042134" data-name="Path 1042134" d="M34.481,195.559H13.457A3.467,3.467,0,0,0,10,199.016v11.106a3.467,3.467,0,0,0,3.457,3.457h4.185l6.327,6.327v-6.327H34.482a3.467,3.467,0,0,0,3.457-3.457V199.016a3.467,3.467,0,0,0-3.457-3.457Zm0,0" transform="translate(-8.795 -171.989)" fill="#c0f4f1" fill-rule="evenodd"/>
        <path id="Path_1042135" data-name="Path 1042135" d="M127.145,10h34.512a5.692,5.692,0,0,1,5.675,5.675V33.907a5.692,5.692,0,0,1-5.675,5.675h-6.87L144.4,49.968V39.582H127.145a5.692,5.692,0,0,1-5.675-5.675V15.675A5.692,5.692,0,0,1,127.145,10Zm0,0" transform="translate(-106.83 -8.794)" fill="#39ddd2" fill-rule="evenodd"/>
        <path id="Path_1042136" data-name="Path 1042136" d="M60.5,19.612A1.205,1.205,0,0,0,59.3,20.818v4.3a4.476,4.476,0,0,1-4.47,4.47h-6.87a1.207,1.207,0,0,0-.853.353l-8.328,8.329V30.788a1.205,1.205,0,0,0-1.205-1.205H20.315a4.475,4.475,0,0,1-4.47-4.47V6.881a4.475,4.475,0,0,1,4.47-4.47H54.827a4.475,4.475,0,0,1,4.47,4.47v4.3a1.205,1.205,0,0,0,2.41,0v-4.3A6.888,6.888,0,0,0,54.827,0H20.315a6.888,6.888,0,0,0-6.881,6.88V22.365H4.662A4.668,4.668,0,0,0,0,27.027V38.133A4.668,4.668,0,0,0,4.662,42.8H8.348l5.973,5.974a1.206,1.206,0,0,0,2.058-.852V42.8h9.307a4.667,4.667,0,0,0,4.662-4.662v-6.14h6.017v9.18a1.205,1.205,0,0,0,2.057.852L48.456,31.993h6.371a6.888,6.888,0,0,0,6.881-6.881v-4.3A1.206,1.206,0,0,0,60.5,19.613ZM27.938,38.133a2.254,2.254,0,0,1-2.252,2.252H15.174a1.205,1.205,0,0,0-1.205,1.205v3.417L9.7,40.738a1.205,1.205,0,0,0-.852-.353H4.662A2.254,2.254,0,0,1,2.41,38.133V27.027a2.255,2.255,0,0,1,2.252-2.252h8.772v.338a6.888,6.888,0,0,0,6.881,6.881h7.624Zm0,0" transform="translate(0 0)"/>
        <path id="Path_1042137" data-name="Path 1042137" d="M228.941,65.531h-23.5a1.205,1.205,0,0,0,0,2.41h23.5a1.205,1.205,0,0,0,0-2.41Zm0,0" transform="translate(-179.619 -57.633)"/>
        <path id="Path_1042138" data-name="Path 1042138" d="M230.146,120.74a1.205,1.205,0,0,0-1.205-1.205h-23.5a1.205,1.205,0,0,0,0,2.41h23.5A1.205,1.205,0,0,0,230.146,120.74Zm0,0" transform="translate(-179.619 -105.128)"/>
        <path id="Path_1042139" data-name="Path 1042139" d="M205.439,173.535a1.205,1.205,0,0,0,0,2.41H219a1.205,1.205,0,0,0,0-2.41Zm0,0" transform="translate(-179.619 -152.619)"/>
        <path id="Path_1042140" data-name="Path 1042140" d="M493.205,122.723a1.205,1.205,0,1,0,1.205,1.205,1.208,1.208,0,0,0-1.205-1.205Zm0,0" transform="translate(-432.703 -107.931)"/>
      </g>
    </g>
  </g>
</svg>
