<svg xmlns="http://www.w3.org/2000/svg" xmlns:xlink="http://www.w3.org/1999/xlink" width="113" height="113" viewBox="0 0 113 113">
  <defs>
    <filter id="Path_982547" x="0" y="0" width="113" height="113" filterUnits="userSpaceOnUse">
      <feOffset dy="3" input="SourceAlpha"/>
      <feGaussianBlur stdDeviation="3" result="blur"/>
      <feFlood flood-opacity="0.161"/>
      <feComposite operator="in" in2="blur"/>
      <feComposite in="SourceGraphic"/>
    </filter>
  </defs>
  <g id="Group_1182325" data-name="Group 1182325" transform="translate(-141 -6314)">
    <g id="Group_1182111" data-name="Group 1182111">
      <g id="Group_1180110" data-name="Group 1180110" transform="translate(-33 639)">
        <g id="Group_1173622" data-name="Group 1173622" transform="translate(-22 3581)">
          <g id="Group_1172087" data-name="Group 1172087" transform="translate(205 2100)">
            <g id="Group_1171485" data-name="Group 1171485">
              <g id="Group_1167519" data-name="Group 1167519" transform="translate(0)">
                <g id="Group_1166845" data-name="Group 1166845">
                  <g id="Group_1166720" data-name="Group 1166720">
                    <g id="Group_1164305" data-name="Group 1164305">
                      <g id="Group_1163948" data-name="Group 1163948">
                        <g id="Group_1158168" data-name="Group 1158168">
                          <g id="Group_1152576" data-name="Group 1152576">
                            <g id="Group_1148633" data-name="Group 1148633">
                              <g id="Group_1148525" data-name="Group 1148525">
                                <g transform="matrix(1, 0, 0, 1, -9, -6)" filter="url(#Path_982547)">
                                  <g id="Path_982547-2" data-name="Path 982547" transform="translate(9 6)" fill="#f2f7f5">
                                    <path d="M 47.5 93.5 C 41.28937149047852 93.5 35.26533508300781 92.28397369384766 29.59518623352051 89.88570404052734 C 24.11771965026855 87.56893157958984 19.19813346862793 84.25196075439453 14.97309303283691 80.02691650390625 C 10.74804019927979 75.80186462402344 7.431066513061523 70.88229370117188 5.114293098449707 65.40481567382812 C 2.716026782989502 59.73468017578125 1.5 53.71062850952148 1.5 47.5 C 1.5 41.28937149047852 2.716026782989502 35.26533508300781 5.114293098449707 29.59518623352051 C 7.431066513061523 24.11771965026855 10.74804019927979 19.19813346862793 14.97309303283691 14.97309303283691 C 19.19813346862793 10.74804019927979 24.11771965026855 7.431066513061523 29.59518623352051 5.114293098449707 C 35.26533508300781 2.716026782989502 41.28937149047852 1.5 47.5 1.5 C 53.71062850952148 1.5 59.73468017578125 2.716026782989502 65.40481567382812 5.114293098449707 C 70.88229370117188 7.431066513061523 75.80186462402344 10.74804019927979 80.02691650390625 14.97309303283691 C 84.25196075439453 19.19813346862793 87.56893157958984 24.11771965026855 89.88570404052734 29.59518623352051 C 92.28397369384766 35.26533508300781 93.5 41.28937149047852 93.5 47.5 C 93.5 53.71062850952148 92.28397369384766 59.73468017578125 89.88570404052734 65.40481567382812 C 87.56893157958984 70.88229370117188 84.25196075439453 75.80186462402344 80.02691650390625 80.02691650390625 C 75.80186462402344 84.25196075439453 70.88229370117188 87.56893157958984 65.40481567382812 89.88570404052734 C 59.73468017578125 92.28397369384766 53.71062850952148 93.5 47.5 93.5 Z" stroke="none"/>
                                    <path d="M 47.5 3 C 41.49121475219727 3 35.66376876831055 4.176155090332031 30.17950439453125 6.495796203613281 C 24.88084411621094 8.736953735351562 20.12152099609375 11.94598388671875 16.03375244140625 16.03375244140625 C 11.94598388671875 20.12152099609375 8.736953735351562 24.88084411621094 6.495796203613281 30.17950439453125 C 4.176155090332031 35.66376876831055 3 41.49121475219727 3 47.5 C 3 53.50878524780273 4.176155090332031 59.33623123168945 6.495796203613281 64.82049560546875 C 8.736953735351562 70.11915588378906 11.94598388671875 74.87847900390625 16.03375244140625 78.96624755859375 C 20.12152099609375 83.05401611328125 24.88084411621094 86.26304626464844 30.17950439453125 88.50419616699219 C 35.66376876831055 90.82384490966797 41.49121475219727 92 47.5 92 C 53.50878524780273 92 59.33623123168945 90.82384490966797 64.82049560546875 88.50419616699219 C 70.11915588378906 86.26304626464844 74.87847900390625 83.05401611328125 78.96624755859375 78.96624755859375 C 83.05401611328125 74.87847900390625 86.26304626464844 70.11915588378906 88.50419616699219 64.82049560546875 C 90.82384490966797 59.33623123168945 92 53.50878524780273 92 47.5 C 92 41.49121475219727 90.82384490966797 35.66376876831055 88.50419616699219 30.17950439453125 C 86.26304626464844 24.88084411621094 83.05401611328125 20.12152099609375 78.96624755859375 16.03375244140625 C 74.87847900390625 11.94598388671875 70.11915588378906 8.736953735351562 64.82049560546875 6.495796203613281 C 59.33623123168945 4.176155090332031 53.50878524780273 3 47.5 3 M 47.5 0 C 73.7335205078125 0 95 21.2664794921875 95 47.5 C 95 73.7335205078125 73.7335205078125 95 47.5 95 C 21.2664794921875 95 0 73.7335205078125 0 47.5 C 0 21.2664794921875 21.2664794921875 0 47.5 0 Z" stroke="none" fill="#88bba9"/>
                                  </g>
                                </g>
                              </g>
                            </g>
                          </g>
                        </g>
                      </g>
                    </g>
                  </g>
                </g>
              </g>
            </g>
          </g>
        </g>
      </g>
      <g id="administracion" transform="translate(165 6335)">
        <path id="Path_1041818" data-name="Path 1041818" d="M72.721,45.695V37.026a1.275,1.275,0,0,0-1.275-1.275h-4.77a25.761,25.761,0,0,0-3.447-8.327L66.6,24.053a1.274,1.274,0,0,0,0-1.8l-6.13-6.13a1.274,1.274,0,0,0-1.8,0L55.3,19.492a25.762,25.762,0,0,0-8.327-3.447v-4.77A1.275,1.275,0,0,0,45.695,10H37.026a1.275,1.275,0,0,0-1.275,1.275v4.777A25.766,25.766,0,0,0,27.436,19.5l-3.384-3.384a1.274,1.274,0,0,0-1.8,0l-6.13,6.13a1.274,1.274,0,0,0,0,1.8l3.391,3.391a25.758,25.758,0,0,0-3.435,8.307h-4.8A1.275,1.275,0,0,0,10,37.026v8.669a1.275,1.275,0,0,0,1.275,1.275h4.809a25.768,25.768,0,0,0,3.44,8.295l-3.4,3.4a1.274,1.274,0,0,0,0,1.8l6.13,6.13a1.274,1.274,0,0,0,1.8,0l3.4-3.4a25.768,25.768,0,0,0,8.295,3.44v4.809a1.275,1.275,0,0,0,1.275,1.275h8.669a1.275,1.275,0,0,0,1.275-1.275v-4.8a25.751,25.751,0,0,0,8.307-3.435L58.668,66.6a1.274,1.274,0,0,0,1.8,0l6.13-6.13a1.274,1.274,0,0,0,0-1.8l-3.384-3.384a25.758,25.758,0,0,0,3.452-8.314h4.777A1.275,1.275,0,0,0,72.721,45.695Zm0,0" transform="translate(-8.725 -8.725)" fill="#79b2ff"/>
        <path id="Path_1041819" data-name="Path 1041819" d="M36.969,65.27H28.3a2.553,2.553,0,0,1-2.55-2.55V58.914a26.932,26.932,0,0,1-6.828-2.831l-2.694,2.694a2.553,2.553,0,0,1-3.606,0l-6.13-6.13a2.552,2.552,0,0,1,0-3.605l2.694-2.694a26.932,26.932,0,0,1-2.831-6.828H2.55A2.553,2.553,0,0,1,0,36.969V28.3a2.553,2.553,0,0,1,2.55-2.55h3.8a26.931,26.931,0,0,1,2.828-6.84L6.494,16.229a2.552,2.552,0,0,1,0-3.605l6.13-6.13a2.553,2.553,0,0,1,3.606,0L18.9,9.167a26.931,26.931,0,0,1,6.849-2.843V2.549A2.553,2.553,0,0,1,28.3,0h8.669a2.553,2.553,0,0,1,2.55,2.55V6.315a26.944,26.944,0,0,1,6.861,2.84l2.662-2.661a2.552,2.552,0,0,1,3.605,0l6.13,6.13a2.553,2.553,0,0,1,0,3.606L56.115,18.89a26.944,26.944,0,0,1,2.84,6.861h3.765a2.553,2.553,0,0,1,2.55,2.55v8.669a2.553,2.553,0,0,1-2.55,2.55H58.947A26.95,26.95,0,0,1,56.1,46.368l2.673,2.673a2.552,2.552,0,0,1,0,3.605l-6.13,6.13a2.553,2.553,0,0,1-3.606,0l-2.682-2.682a26.946,26.946,0,0,1-6.84,2.828v3.8a2.553,2.553,0,0,1-2.55,2.55ZM18.732,53.2a1.273,1.273,0,0,1,.686.2,24.409,24.409,0,0,0,7.884,3.27,1.275,1.275,0,0,1,1,1.245V62.72h8.669v-4.8a1.274,1.274,0,0,1,1-1.245,24.428,24.428,0,0,0,7.9-3.265,1.275,1.275,0,0,1,1.587.174l3.391,3.391,6.13-6.13L53.59,47.46a1.275,1.275,0,0,1-.172-1.589,24.426,24.426,0,0,0,3.282-7.9,1.274,1.274,0,0,1,1.244-1H62.72V28.3H57.95a1.274,1.274,0,0,1-1.245-1,24.411,24.411,0,0,0-3.277-7.915A1.276,1.276,0,0,1,53.6,17.8l3.371-3.371L50.844,8.3l-3.371,3.371a1.275,1.275,0,0,1-1.588.173A24.423,24.423,0,0,0,37.97,8.565a1.274,1.274,0,0,1-1-1.245V2.55H28.3V7.327a1.275,1.275,0,0,1-1,1.245,24.423,24.423,0,0,0-7.9,3.281,1.274,1.274,0,0,1-1.588-.172L14.426,8.3,8.3,14.426l3.391,3.392a1.274,1.274,0,0,1,.174,1.586A24.428,24.428,0,0,0,8.6,27.3a1.274,1.274,0,0,1-1.245,1H2.55v8.669H7.359a1.275,1.275,0,0,1,1.245,1,24.416,24.416,0,0,0,3.27,7.884A1.275,1.275,0,0,1,11.7,47.44l-3.4,3.4,6.13,6.13,3.4-3.4a1.275,1.275,0,0,1,.9-.373Zm0,0" transform="translate(0 0)"/>
        <path id="Path_1041820" data-name="Path 1041820" d="M154.675,137.337A17.337,17.337,0,1,1,137.337,120,17.338,17.338,0,0,1,154.675,137.337Zm0,0" transform="translate(-104.702 -104.702)" fill="#fff"/>
        <path id="Path_1041821" data-name="Path 1041821" d="M128.671,147.232a18.609,18.609,0,1,1,9.1-34.846,1.275,1.275,0,1,1-1.247,2.223,16.063,16.063,0,1,0,6.524,6.841,1.275,1.275,0,1,1,2.281-1.139,18.606,18.606,0,0,1-16.656,26.921Zm0,0" transform="translate(-96.036 -95.994)"/>
        <path id="Path_1041822" data-name="Path 1041822" d="M345.627,154.562a1.276,1.276,0,1,1,.9-.374A1.283,1.283,0,0,1,345.627,154.562Zm0,0" transform="translate(-300.454 -132.633)"/>
        <path id="Path_1041823" data-name="Path 1041823" d="M193.8,192.332l-7.088,7.088-3.489-3.489-4.572,4.572,3.489,3.489,4.572,4.573,11.66-11.66Zm0,0" transform="translate(-155.874 -167.813)" fill="#cbe558"/>
        <path id="Path_1041824" data-name="Path 1041824" d="M177.985,201.115a1.275,1.275,0,0,1-.9-.373l-8.062-8.062a1.274,1.274,0,0,1,0-1.8l4.572-4.573a1.276,1.276,0,0,1,1.8,0l2.587,2.588,6.186-6.186a1.274,1.274,0,0,1,1.8,0l4.573,4.573a1.275,1.275,0,0,1,0,1.8l-11.66,11.66A1.277,1.277,0,0,1,177.985,201.115Zm-6.259-9.337,6.259,6.259,9.857-9.857-2.77-2.77-6.186,6.186a1.275,1.275,0,0,1-1.8,0l-2.588-2.588Zm0,0" transform="translate(-147.149 -159.088)"/>
      </g>
    </g>
  </g>
</svg>
