<svg xmlns="http://www.w3.org/2000/svg" xmlns:xlink="http://www.w3.org/1999/xlink" width="113" height="113" viewBox="0 0 113 113">
  <defs>
    <filter id="Path_982547" x="0" y="0" width="113" height="113" filterUnits="userSpaceOnUse">
      <feOffset dy="3" input="SourceAlpha"/>
      <feGaussianBlur stdDeviation="3" result="blur"/>
      <feFlood flood-opacity="0.161"/>
      <feComposite operator="in" in2="blur"/>
      <feComposite in="SourceGraphic"/>
    </filter>
  </defs>
  <g id="Group_1182313" data-name="Group 1182313" transform="translate(-141 -2135)">
    <g id="Group_1180052" data-name="Group 1180052" transform="translate(150 2141)">
      <g id="Group_1173622" data-name="Group 1173622">
        <g id="Group_1172087" data-name="Group 1172087" transform="translate(0)">
          <g id="Group_1171485" data-name="Group 1171485">
            <g id="Group_1167519" data-name="Group 1167519">
              <g id="Group_1166845" data-name="Group 1166845">
                <g id="Group_1166720" data-name="Group 1166720">
                  <g id="Group_1164305" data-name="Group 1164305">
                    <g id="Group_1163948" data-name="Group 1163948">
                      <g id="Group_1158168" data-name="Group 1158168">
                        <g id="Group_1152576" data-name="Group 1152576">
                          <g id="Group_1148633" data-name="Group 1148633">
                            <g id="Group_1148525" data-name="Group 1148525">
                              <g transform="matrix(1, 0, 0, 1, -9, -6)" filter="url(#Path_982547)">
                                <g id="Path_982547-2" data-name="Path 982547" transform="translate(9 6)" fill="#f2f7f5">
                                  <path d="M 47.5 93.5 C 41.28937149047852 93.5 35.26533508300781 92.28397369384766 29.59518623352051 89.88570404052734 C 24.11771965026855 87.56893157958984 19.19813346862793 84.25196075439453 14.97309303283691 80.02691650390625 C 10.74804019927979 75.80186462402344 7.431066513061523 70.88229370117188 5.114293098449707 65.40481567382812 C 2.716026782989502 59.73468017578125 1.5 53.71062850952148 1.5 47.5 C 1.5 41.28937149047852 2.716026782989502 35.26533508300781 5.114293098449707 29.59518623352051 C 7.431066513061523 24.11771965026855 10.74804019927979 19.19813346862793 14.97309303283691 14.97309303283691 C 19.19813346862793 10.74804019927979 24.11771965026855 7.431066513061523 29.59518623352051 5.114293098449707 C 35.26533508300781 2.716026782989502 41.28937149047852 1.5 47.5 1.5 C 53.71062850952148 1.5 59.73468017578125 2.716026782989502 65.40481567382812 5.114293098449707 C 70.88229370117188 7.431066513061523 75.80186462402344 10.74804019927979 80.02691650390625 14.97309303283691 C 84.25196075439453 19.19813346862793 87.56893157958984 24.11771965026855 89.88570404052734 29.59518623352051 C 92.28397369384766 35.26533508300781 93.5 41.28937149047852 93.5 47.5 C 93.5 53.71062850952148 92.28397369384766 59.73468017578125 89.88570404052734 65.40481567382812 C 87.56893157958984 70.88229370117188 84.25196075439453 75.80186462402344 80.02691650390625 80.02691650390625 C 75.80186462402344 84.25196075439453 70.88229370117188 87.56893157958984 65.40481567382812 89.88570404052734 C 59.73468017578125 92.28397369384766 53.71062850952148 93.5 47.5 93.5 Z" stroke="none"/>
                                  <path d="M 47.5 3 C 41.49121475219727 3 35.66376876831055 4.176155090332031 30.17950439453125 6.495796203613281 C 24.88084411621094 8.736953735351562 20.12152099609375 11.94598388671875 16.03375244140625 16.03375244140625 C 11.94598388671875 20.12152099609375 8.736953735351562 24.88084411621094 6.495796203613281 30.17950439453125 C 4.176155090332031 35.66376876831055 3 41.49121475219727 3 47.5 C 3 53.50878524780273 4.176155090332031 59.33623123168945 6.495796203613281 64.82049560546875 C 8.736953735351562 70.11915588378906 11.94598388671875 74.87847900390625 16.03375244140625 78.96624755859375 C 20.12152099609375 83.05401611328125 24.88084411621094 86.26304626464844 30.17950439453125 88.50419616699219 C 35.66376876831055 90.82384490966797 41.49121475219727 92 47.5 92 C 53.50878524780273 92 59.33623123168945 90.82384490966797 64.82049560546875 88.50419616699219 C 70.11915588378906 86.26304626464844 74.87847900390625 83.05401611328125 78.96624755859375 78.96624755859375 C 83.05401611328125 74.87847900390625 86.26304626464844 70.11915588378906 88.50419616699219 64.82049560546875 C 90.82384490966797 59.33623123168945 92 53.50878524780273 92 47.5 C 92 41.49121475219727 90.82384490966797 35.66376876831055 88.50419616699219 30.17950439453125 C 86.26304626464844 24.88084411621094 83.05401611328125 20.12152099609375 78.96624755859375 16.03375244140625 C 74.87847900390625 11.94598388671875 70.11915588378906 8.736953735351562 64.82049560546875 6.495796203613281 C 59.33623123168945 4.176155090332031 53.50878524780273 3 47.5 3 M 47.5 0 C 73.7335205078125 0 95 21.2664794921875 95 47.5 C 95 73.7335205078125 73.7335205078125 95 47.5 95 C 21.2664794921875 95 0 73.7335205078125 0 47.5 C 0 21.2664794921875 21.2664794921875 0 47.5 0 Z" stroke="none" fill="#88bba9"/>
                                </g>
                              </g>
                            </g>
                          </g>
                        </g>
                      </g>
                    </g>
                  </g>
                </g>
              </g>
            </g>
          </g>
        </g>
      </g>
    </g>
    <g id="Fill_out_line" data-name="Fill out line" transform="translate(152 2143)">
      <g id="Group_1182109" data-name="Group 1182109" transform="translate(31.914 32.908)">
        <path id="Path_1041800" data-name="Path 1041800" d="M144,224h3.978v10.941H144Z" transform="translate(-144 -215.048)" fill="#4db7e5"/>
        <path id="Path_1041801" data-name="Path 1041801" d="M272,232h3.978v13.925H272Z" transform="translate(-256.086 -222.054)" fill="#4db7e5"/>
        <path id="Path_1041802" data-name="Path 1041802" d="M211.978,217.9V200H208v15.914Z" transform="translate(-200.043 -194.032)" fill="#4db7e5"/>
        <path id="Path_1041803" data-name="Path 1041803" d="M336,210.941V200h3.978v9.946Z" transform="translate(-312.129 -194.032)" fill="#4db7e5"/>
        <path id="Path_1041804" data-name="Path 1041804" d="M400,152h3.978v14.919H400Z" transform="translate(-368.172 -152)" fill="#4db7e5"/>
      </g>
      <path id="Path_1041805" data-name="Path 1041805" d="M120,41.9l2.984,2.984,8.952-8.952,8.952,9.946,14.919-14.919v4.973h3.978V24H147.849v3.978h4.973L140.887,39.914l-8.952-9.946Z" transform="translate(-91.07 -7.005)" fill="#f35244"/>
      <path id="Path_1041806" data-name="Path 1041806" d="M80,328h3.978v16.908H80Z" transform="translate(-56.043 -273.21)" fill="#4db7e5"/>
      <path id="Path_1041807" data-name="Path 1041807" d="M329.257,306.907l.689,2.375-8.952,9.946L320,315.249l.622-1.273,2.952-6.557a3.275,3.275,0,0,1,5.684-.512Z" transform="translate(-266.205 -253.497)" fill="#ed908b"/>
      <path id="Path_1041808" data-name="Path 1041808" d="M342.541,297.919l-7.579,8.574L328,311.466v-2.984s.995-.551.992-.577h0l7.271-9.753,1.12-1.5a2.883,2.883,0,0,1,5.158,1.272Z" transform="translate(-273.21 -244.741)" fill="#ff9f9b"/>
      <path id="Path_1041809" data-name="Path 1041809" d="M157.752,310.175l-10.87,10.87a24.012,24.012,0,0,1-33.959,0l-.924-.924V311.17a7.033,7.033,0,0,1,9.946,0l1.989,1.989h12.433a3.467,3.467,0,0,1,2.114.716,3.358,3.358,0,0,1,.348.3,3.468,3.468,0,0,1,1.017,2.381h0c0,.026,0,.052,0,.08a3.468,3.468,0,0,1-.792,2.211h0a17.907,17.907,0,0,0,6.034-3.974l8.681-8.68a2.813,2.813,0,0,1,3.978,3.978Z" transform="translate(-84.065 -253.396)" fill="#ffdad2"/>
      <path id="Path_1041810" data-name="Path 1041810" d="M16,312h7.957v21.882H16Z" transform="translate(0 -259.199)" fill="#3086cd"/>
      <path id="Path_1041811" data-name="Path 1041811" d="M141.968,227.935V216.995a1,1,0,0,0-.995-.995h-3.978a1,1,0,0,0-.995.995v10.941h1.989v-9.946h1.989v9.946Z" transform="translate(-105.081 -175.135)"/>
      <path id="Path_1041812" data-name="Path 1041812" d="M269.968,238.919V224.995a1,1,0,0,0-.995-.995h-3.978a1,1,0,0,0-.995.995v13.925h1.989v-12.93h1.989v12.93Z" transform="translate(-217.167 -182.14)"/>
      <path id="Path_1041813" data-name="Path 1041813" d="M205.968,210.9v-17.9a1,1,0,0,0-.995-.995h-3.978a1,1,0,0,0-.995.995v15.914h1.989V193.989h1.989V210.9Z" transform="translate(-161.124 -154.119)"/>
      <path id="Path_1041814" data-name="Path 1041814" d="M333.968,202.941v-9.946a1,1,0,0,0-.995-.995h-3.978a1,1,0,0,0-.995.995v10.941h1.989v-9.946h1.989v8.952Z" transform="translate(-273.21 -154.119)"/>
      <path id="Path_1041815" data-name="Path 1041815" d="M397.968,159.914V144.995a1,1,0,0,0-.995-.995h-3.978a1,1,0,0,0-.995.995v14.919h1.989V145.989h1.989v13.925Z" transform="translate(-329.253 -112.086)"/>
      <path id="Path_1041816" data-name="Path 1041816" d="M115.275,38.585a1,1,0,0,0,1.407,0l8.21-8.21,8.25,9.167a.994.994,0,0,0,.713.329h.026a1,1,0,0,0,.7-.291l13.221-13.221V28.93a1,1,0,0,0,.995.995h3.978a1,1,0,0,0,.995-.995V16.995a1,1,0,0,0-.995-.995H140.844a1,1,0,0,0-.995.995v3.978a1,1,0,0,0,.995.995h2.572l-9.5,9.5L125.67,22.3a.995.995,0,0,0-1.443-.038L112.292,34.194a1,1,0,0,0,0,1.407Zm9.617-14.178,8.25,9.167a.995.995,0,0,0,1.443.038L146.52,21.676a.995.995,0,0,0-.7-1.7h-3.978V17.989h9.946v9.946H149.8V23.957a.995.995,0,0,0-1.7-.7L133.92,37.432l-8.25-9.167a.994.994,0,0,0-.713-.329h-.026a1,1,0,0,0-.7.291l-8.248,8.248L114.4,34.9Z" transform="translate(-84.065 0)"/>
      <path id="Path_1041817" data-name="Path 1041817" d="M24.952,312.413v-1.989h2.984a1,1,0,0,0,.995-.995v-2.606a25.005,25.005,0,0,0,34.591-.74l10.87-10.87a3.808,3.808,0,0,0-4.652-5.958,3.876,3.876,0,0,0-6.364-.212l-.422.566a4.269,4.269,0,0,0-6.492,1.635l-2.507,5.572A4.451,4.451,0,0,0,52.3,296.5H40.283l-1.7-1.7a8.041,8.041,0,0,0-9.655-1.295v-.986a1,1,0,0,0-.995-.995H24.952v-.995a1,1,0,0,0-.995-.995H16v1.989h6.962v19.892H16v1.989h7.957a1,1,0,0,0,.995-.995Zm42.5-22.671a1.882,1.882,0,0,1,.762.875l-7.892,7.892a16.826,16.826,0,0,1-3.546,2.713l8.191-10.989a1.882,1.882,0,0,1,2.485-.491Zm-9.179,2.319a2.277,2.277,0,0,1,3.488-.855l-5.6,7.511a4.5,4.5,0,0,0-.548-.747Zm-21.1,4.147,1.989,1.989a1,1,0,0,0,.7.291H52.3a2.487,2.487,0,1,1,0,4.973H39.871v1.989H52.3a4.464,4.464,0,0,0,3.277-1.432,18.786,18.786,0,0,0,6.151-4.1l8.681-8.681a1.819,1.819,0,0,1,2.572,2.572l-10.87,10.87a23.018,23.018,0,0,1-32.552,0l-.633-.633v-8.107a6.045,6.045,0,0,1,8.248.271Zm-10.237-2.693v14.919H24.952V293.516Z" transform="translate(0 -237.731)"/>
    </g>
  </g>
</svg>
