<svg xmlns="http://www.w3.org/2000/svg" width="36.099" height="36.158" viewBox="0 0 36.099 36.158">
  <g id="Group_1182341" data-name="Group 1182341" transform="translate(-945.97 -3071.172)">
    <g id="working_1_" data-name="working (1)" transform="translate(945.549 3071.173)">
      <g id="Group_1172914" data-name="Group 1172914" transform="translate(0.421 -0.001)">
        <path id="Path_1038388" data-name="Path 1038388" d="M224.224,327.528A2.424,2.424,0,1,0,221.8,325.1,2.427,2.427,0,0,0,224.224,327.528Zm0-3.789a1.365,1.365,0,1,1-1.365,1.365A1.366,1.366,0,0,1,224.224,323.739Z" transform="translate(-206.166 -299.892)"/>
        <path id="Path_1038389" data-name="Path 1038389" d="M34.757,32.632H33.046l.528-.508a3.009,3.009,0,0,0,.8-3.054l-1.823-6.014a5.047,5.047,0,0,0-4.029-3.537l-.733-.122a2.207,2.207,0,0,0-1.677-.771h-2.94a1.055,1.055,0,0,1-.784-.928l-.1-1.075a6.276,6.276,0,0,0,2.57-4.4h.223a1.6,1.6,0,0,0,1.594-1.594V9.451a1.6,1.6,0,0,0-.892-1.431c0-.254,0-.681,0-1.4a.53.53,0,1,0-1.059,0c0,.58,0,.97,0,1.233h-.393a.543.543,0,0,1-.559-.536V6.259A1.673,1.673,0,0,0,22.1,4.588a3.9,3.9,0,0,0-1.351.2,6.527,6.527,0,0,1-2.212.39,6.56,6.56,0,0,1-2.212-.39,4.123,4.123,0,0,0-1.464-.2,1.673,1.673,0,0,0-1.671,1.671V7.321a.549.549,0,0,1-.559.536h-.394V3.967a1.464,1.464,0,0,1,1.7-1.445A1.252,1.252,0,0,0,15.419,1.41a.821.821,0,0,1,.674-.351h5.953a2.672,2.672,0,0,1,2.674,2.673c0,.184,0,.276,0,.322a.531.531,0,1,0,1.06.044s0-.007,0-.01,0-.078,0-.356A3.731,3.731,0,0,0,22.047,0H16.094A1.878,1.878,0,0,0,14.428,1a.532.532,0,0,0-.061.261c0,.166-.105.235-.266.21a2.524,2.524,0,0,0-2.925,2.491V8.02a1.6,1.6,0,0,0-.891,1.431v1.18a1.6,1.6,0,0,0,1.594,1.594H12.1a6.108,6.108,0,0,0,1.248,3.11,6.847,6.847,0,0,0,1.321,1.294l-.1,1.07a1.055,1.055,0,0,1-.784.928H10.85a2.207,2.207,0,0,0-1.677.771l-.733.122a5.048,5.048,0,0,0-4.029,3.537L2.588,29.07a3.009,3.009,0,0,0,.8,3.054l.528.508H2.184a1.763,1.763,0,1,0,0,3.526H34.757a1.763,1.763,0,0,0,0-3.526ZM24.889,8.916h.19a.535.535,0,0,1,.535.535v1.18a.535.535,0,0,1-.535.535h-.19ZM11.88,11.165a.535.535,0,0,1-.535-.535V9.451a.535.535,0,0,1,.535-.535h.19v2.249h-.19Zm16.465,9.4a4,4,0,0,1,3.189,2.8l1.823,6.014a1.954,1.954,0,0,1-.517,1.983l-1.321,1.271h-1.15a2.621,2.621,0,0,0,.163-.914,1.1,1.1,0,0,0-1.1-1.1H28.32V20.838a2.226,2.226,0,0,0-.018-.281Zm1.089,11.116a.039.039,0,0,1,.039.039,1.554,1.554,0,0,1-.295.914H7.781a1.554,1.554,0,0,1-.295-.914.039.039,0,0,1,.039-.039Zm-16.3-19.991V8.839A1.591,1.591,0,0,0,14.248,7.32V6.259a.612.612,0,0,1,.612-.612,3.145,3.145,0,0,1,1.124.145,7.556,7.556,0,0,0,2.552.446,7.764,7.764,0,0,0,2.552-.446A2.874,2.874,0,0,1,22.1,5.647a.612.612,0,0,1,.612.612V7.32A1.592,1.592,0,0,0,23.83,8.838v2.85a5.154,5.154,0,0,1-1.882,3.849,5.772,5.772,0,0,1-3.467,1.424,5.63,5.63,0,0,1-5.35-5.274Zm8.454,6.938H15.375a2.126,2.126,0,0,0,.253-.831l.049-.533a6.015,6.015,0,0,0,2.8.758h.012a6.357,6.357,0,0,0,2.8-.765l.05.539a2.125,2.125,0,0,0,.253.831ZM3.6,29.377l1.823-6.014a4,4,0,0,1,3.189-2.8l.042-.007a2.226,2.226,0,0,0-.018.281v3.25a.53.53,0,0,0,1.059,0v-3.25a1.154,1.154,0,0,1,1.152-1.152H26.108a1.154,1.154,0,0,1,1.152,1.152V30.62H9.7V26.594a.53.53,0,1,0-1.059,0V30.62H7.524a1.1,1.1,0,0,0-1.1,1.1,2.621,2.621,0,0,0,.163.914H5.44L4.119,31.36A1.954,1.954,0,0,1,3.6,29.377ZM34.757,35.1H2.184a.7.7,0,1,1,0-1.407H34.757a.7.7,0,0,1,0,1.407Z" transform="translate(-0.421 0.001)"/>
      </g>
    </g>
  </g>
</svg>
