<svg xmlns="http://www.w3.org/2000/svg" xmlns:xlink="http://www.w3.org/1999/xlink" width="113" height="113" viewBox="0 0 113 113">
  <defs>
    <filter id="Path_982547" x="0" y="0" width="113" height="113" filterUnits="userSpaceOnUse">
      <feOffset dy="3" input="SourceAlpha"/>
      <feGaussianBlur stdDeviation="3" result="blur"/>
      <feFlood flood-opacity="0.161"/>
      <feComposite operator="in" in2="blur"/>
      <feComposite in="SourceGraphic"/>
    </filter>
  </defs>
  <g id="Group_1182328" data-name="Group 1182328" transform="translate(-323 -7752)">
    <g id="Group_1182283" data-name="Group 1182283" transform="translate(0 17)">
      <g id="Group_1180116" data-name="Group 1180116" transform="translate(332 7741)">
        <g id="Group_1172831" data-name="Group 1172831">
          <g id="Group_1172151" data-name="Group 1172151">
            <g id="Group_1171046" data-name="Group 1171046">
              <g id="Group_1148525" data-name="Group 1148525">
                <g transform="matrix(1, 0, 0, 1, -9, -6)" filter="url(#Path_982547)">
                  <g id="Path_982547-2" data-name="Path 982547" transform="translate(9 6)" fill="#f2f7f5">
                    <path d="M 47.5 93.5 C 41.28937149047852 93.5 35.26533508300781 92.28397369384766 29.59518623352051 89.88570404052734 C 24.11771965026855 87.56893157958984 19.19813346862793 84.25196075439453 14.97309303283691 80.02691650390625 C 10.74804019927979 75.80186462402344 7.431066513061523 70.88229370117188 5.114293098449707 65.40481567382812 C 2.716026782989502 59.73468017578125 1.5 53.71062850952148 1.5 47.5 C 1.5 41.28937149047852 2.716026782989502 35.26533508300781 5.114293098449707 29.59518623352051 C 7.431066513061523 24.11771965026855 10.74804019927979 19.19813346862793 14.97309303283691 14.97309303283691 C 19.19813346862793 10.74804019927979 24.11771965026855 7.431066513061523 29.59518623352051 5.114293098449707 C 35.26533508300781 2.716026782989502 41.28937149047852 1.5 47.5 1.5 C 53.71062850952148 1.5 59.73468017578125 2.716026782989502 65.40481567382812 5.114293098449707 C 70.88229370117188 7.431066513061523 75.80186462402344 10.74804019927979 80.02691650390625 14.97309303283691 C 84.25196075439453 19.19813346862793 87.56893157958984 24.11771965026855 89.88570404052734 29.59518623352051 C 92.28397369384766 35.26533508300781 93.5 41.28937149047852 93.5 47.5 C 93.5 53.71062850952148 92.28397369384766 59.73468017578125 89.88570404052734 65.40481567382812 C 87.56893157958984 70.88229370117188 84.25196075439453 75.80186462402344 80.02691650390625 80.02691650390625 C 75.80186462402344 84.25196075439453 70.88229370117188 87.56893157958984 65.40481567382812 89.88570404052734 C 59.73468017578125 92.28397369384766 53.71062850952148 93.5 47.5 93.5 Z" stroke="none"/>
                    <path d="M 47.5 3 C 41.49121475219727 3 35.66376876831055 4.176155090332031 30.17950439453125 6.495796203613281 C 24.88084411621094 8.736953735351562 20.12152099609375 11.94598388671875 16.03375244140625 16.03375244140625 C 11.94598388671875 20.12152099609375 8.736953735351562 24.88084411621094 6.495796203613281 30.17950439453125 C 4.176155090332031 35.66376876831055 3 41.49121475219727 3 47.5 C 3 53.50878524780273 4.176155090332031 59.33623123168945 6.495796203613281 64.82049560546875 C 8.736953735351562 70.11915588378906 11.94598388671875 74.87847900390625 16.03375244140625 78.96624755859375 C 20.12152099609375 83.05401611328125 24.88084411621094 86.26304626464844 30.17950439453125 88.50419616699219 C 35.66376876831055 90.82384490966797 41.49121475219727 92 47.5 92 C 53.50878524780273 92 59.33623123168945 90.82384490966797 64.82049560546875 88.50419616699219 C 70.11915588378906 86.26304626464844 74.87847900390625 83.05401611328125 78.96624755859375 78.96624755859375 C 83.05401611328125 74.87847900390625 86.26304626464844 70.11915588378906 88.50419616699219 64.82049560546875 C 90.82384490966797 59.33623123168945 92 53.50878524780273 92 47.5 C 92 41.49121475219727 90.82384490966797 35.66376876831055 88.50419616699219 30.17950439453125 C 86.26304626464844 24.88084411621094 83.05401611328125 20.12152099609375 78.96624755859375 16.03375244140625 C 74.87847900390625 11.94598388671875 70.11915588378906 8.736953735351562 64.82049560546875 6.495796203613281 C 59.33623123168945 4.176155090332031 53.50878524780273 3 47.5 3 M 47.5 0 C 73.7335205078125 0 95 21.2664794921875 95 47.5 C 95 73.7335205078125 73.7335205078125 95 47.5 95 C 21.2664794921875 95 0 73.7335205078125 0 47.5 C 0 21.2664794921875 21.2664794921875 0 47.5 0 Z" stroke="none" fill="#4a665c"/>
                  </g>
                </g>
              </g>
            </g>
          </g>
        </g>
      </g>
      <g id="expediente" transform="translate(321.736 7759)">
        <g id="Group_1182281" data-name="Group 1182281" transform="translate(32.137 0.873)">
          <path id="Path_1042114" data-name="Path 1042114" d="M43.409,62.007a4.652,4.652,0,0,1-4.645-4.659V12.16A4.652,4.652,0,0,1,43.409,7.5H63.292a3.479,3.479,0,0,1,2.466,1.026L78.975,21.81a3.5,3.5,0,0,1,1.018,2.468V56.533a5.474,5.474,0,0,1-5.474,5.474Z" transform="translate(-38.764 -7.5)" fill="#f9f8f9"/>
          <path id="Path_1042115" data-name="Path 1042115" d="M46.9,62H43.411a4.652,4.652,0,0,1-4.646-4.659V12.155A4.652,4.652,0,0,1,43.411,7.5H46.9a4.652,4.652,0,0,0-4.646,4.659V57.344A4.652,4.652,0,0,0,46.9,62Z" transform="translate(-38.765 -7.496)" fill="#e3e0e4"/>
          <g id="Group_1182280" data-name="Group 1182280" transform="translate(5.532 15.721)">
            <path id="Path_1042116" data-name="Path 1042116" d="M103.528,144.228h-14.4a.873.873,0,1,1,0-1.747h14.4a.873.873,0,1,1,0,1.747Z" transform="translate(-88.025 -142.481)" fill="#a29aa5"/>
            <path id="Path_1042117" data-name="Path 1042117" d="M109.351,324.269H89.131a.874.874,0,0,1,0-1.747h20.22a.874.874,0,0,1,0,1.747Z" transform="translate(-88.025 -301.553)" fill="#a29aa5"/>
            <path id="Path_1042118" data-name="Path 1042118" d="M113.2,204.242H87.133a.874.874,0,1,1,0-1.747H113.2a.874.874,0,0,1,0,1.747Z" transform="translate(-86.26 -195.505)" fill="#a29aa5"/>
            <path id="Path_1042119" data-name="Path 1042119" d="M113.207,264.256H87.133a.874.874,0,0,1,0-1.747h26.074a.874.874,0,1,1,0,1.747Z" transform="translate(-86.26 -248.53)" fill="#a29aa5"/>
          </g>
          <path id="Path_1042120" data-name="Path 1042120" d="M238.21,317.875a3.144,3.144,0,0,0-.926-2.071l-8.42-8.371a3.19,3.19,0,0,0-4.493,0,3.145,3.145,0,0,0,0,4.467l3,2.979H210.412a3.159,3.159,0,1,0,0,6.318h16.955l-3,2.979a3.145,3.145,0,0,0,0,4.467,3.189,3.189,0,0,0,4.493,0l8.42-8.371A3.148,3.148,0,0,0,238.21,317.875Z" transform="translate(-187.614 -271.683)" fill="#80e29e"/>
          <path id="Path_1042121" data-name="Path 1042121" d="M227.36,314.924h2.1a.582.582,0,0,0,.411-1l-2.918-2.9a3.619,3.619,0,0,1-.537-4.461,3.158,3.158,0,0,0-2.04,5.385Zm-2.989,9.3a3.158,3.158,0,0,0,2.04,5.385,3.619,3.619,0,0,1,.537-4.461l2.788-2.919a.582.582,0,0,0-.421-.984h-1.947Zm-12.384-9.3h-1.575a3.159,3.159,0,1,0,0,6.317h1.575a3.627,3.627,0,0,1,0-6.317Z" transform="translate(-187.614 -271.734)" fill="#77d192"/>
          <path id="Path_1042122" data-name="Path 1042122" d="M250.613,24.273v2.046h-12.1a6.654,6.654,0,0,1-6.641-6.651V7.5h2.037a3.481,3.481,0,0,1,2.467,1.026L249.6,21.805A3.5,3.5,0,0,1,250.613,24.273Z" transform="translate(-209.384 -7.496)" fill="#e3e0e4"/>
          <path id="Path_1042123" data-name="Path 1042123" d="M276.8,25.264H265.022a3.152,3.152,0,0,1-3.147-3.157V10.256a3.484,3.484,0,0,1,1.01.7L276.1,24.244A3.446,3.446,0,0,1,276.8,25.264Z" transform="translate(-235.89 -9.935)" fill="#a29aa5"/>
        </g>
        <g id="Group_1182282" data-name="Group 1182282" transform="translate(31.264 0)">
          <path id="Path_1042124" data-name="Path 1042124" d="M43.936,269.316H36.783a3.783,3.783,0,0,1-3.772-3.785V244a.873.873,0,0,0-1.747,0v21.532a5.532,5.532,0,0,0,5.519,5.532h7.153a.873.873,0,1,0,0-1.747Z" transform="translate(-31.264 -214.81)"/>
          <path id="Path_1042125" data-name="Path 1042125" d="M89.132,144.228h14.4a.873.873,0,1,0,0-1.747h-14.4a.873.873,0,1,0,0,1.747Z" transform="translate(-81.62 -125.887)"/>
          <path id="Path_1042126" data-name="Path 1042126" d="M89.132,322.522a.874.874,0,0,0,0,1.747h20.22a.874.874,0,0,0,0-1.747Z" transform="translate(-81.62 -284.959)"/>
          <path id="Path_1042127" data-name="Path 1042127" d="M87.134,204.242H113.2a.874.874,0,0,0,0-1.747H87.134a.874.874,0,1,0,0,1.747Z" transform="translate(-79.855 -178.911)"/>
          <path id="Path_1042128" data-name="Path 1042128" d="M87.134,264.256h26.074a.874.874,0,0,0,0-1.747H87.134a.874.874,0,0,0,0,1.747Z" transform="translate(-79.855 -231.936)"/>
          <path id="Path_1042129" data-name="Path 1042129" d="M83.606,47.023a4.029,4.029,0,0,0-1.183-2.648L74.24,36.239V17.65a4.345,4.345,0,0,0-1.272-3.084L59.751,1.283A4.383,4.383,0,0,0,56.665,0H36.783a5.532,5.532,0,0,0-5.519,5.532V25.113a.873.873,0,0,0,1.747,0V5.532a3.783,3.783,0,0,1,3.772-3.785H56.665a2.616,2.616,0,0,1,.583.068V6.73A.873.873,0,1,0,59,6.73V3L71.262,15.329H61.269A2.281,2.281,0,0,1,59,13.045V10.806a.873.873,0,1,0-1.747,0v2.239a4.03,4.03,0,0,0,4.021,4.031H72.428a2.65,2.65,0,0,1,.065.574V35.057a4.036,4.036,0,0,0-4.214,6.653L69.773,43.2H64.616a.873.873,0,1,0,0,1.747h7.274a.874.874,0,0,0,.616-1.493l-3-2.979a2.283,2.283,0,0,1,0-3.228,2.318,2.318,0,0,1,3.261,0l8.423,8.374a2.285,2.285,0,0,1,0,3.225l-8.421,8.372a2.314,2.314,0,0,1-3.261,0,2.283,2.283,0,0,1,0-3.228l3-2.979a.873.873,0,0,0-.616-1.493H54.936a2.286,2.286,0,1,1,0-4.571h5.6a.873.873,0,0,0,0-1.747h-5.6a4.033,4.033,0,1,0,0,8.065H69.773l-1.495,1.486a4,4,0,0,0-1.037,1.76H48.012a.873.873,0,1,0,0,1.747H67.144a3.994,3.994,0,0,0,1.134,2.2,4.064,4.064,0,0,0,5.725,0l8.416-8.367A4.034,4.034,0,0,0,83.606,47.023Z" transform="translate(-31.264 0)"/>
        </g>
      </g>
    </g>
  </g>
</svg>
