<svg xmlns="http://www.w3.org/2000/svg" xmlns:xlink="http://www.w3.org/1999/xlink" width="93.656" height="93.656" viewBox="0 0 93.656 93.656">
  <defs>
    <filter id="Path_982547" x="0" y="0" width="93.656" height="93.656" filterUnits="userSpaceOnUse">
      <feOffset dy="3" input="SourceAlpha"/>
      <feGaussianBlur stdDeviation="3" result="blur"/>
      <feFlood flood-opacity="0.161"/>
      <feComposite operator="in" in2="blur"/>
      <feComposite in="SourceGraphic"/>
    </filter>
  </defs>
  <g id="Group_1182345" data-name="Group 1182345" transform="translate(-194 -2381.784)">
    <g id="Group_1182301" data-name="Group 1182301" transform="translate(0 46.784)">
      <g id="Group_1181616" data-name="Group 1181616" transform="translate(-1 1254)">
        <g id="Group_1180309" data-name="Group 1180309" transform="translate(-5.461 -6709)">
          <g id="Group_1174894" data-name="Group 1174894" transform="translate(11.291 2507.168)">
            <g id="Group_1172067" data-name="Group 1172067" transform="translate(198.17 5288.832)">
              <g id="Group_1164308" data-name="Group 1164308" transform="translate(0 0)">
                <g id="Group_1163948" data-name="Group 1163948" transform="translate(0)">
                  <g id="Group_1158168" data-name="Group 1158168" transform="translate(0)">
                    <g id="Group_1152576" data-name="Group 1152576">
                      <g id="Group_1148633" data-name="Group 1148633">
                        <g id="Group_1148525" data-name="Group 1148525">
                          <g transform="matrix(1, 0, 0, 1, -9, -6)" filter="url(#Path_982547)">
                            <g id="Path_982547-2" data-name="Path 982547" transform="translate(9 6)" fill="#f2f7f5">
                              <path d="M 37.8281364440918 74.15627288818359 C 32.92320251464844 74.15627288818359 28.16579246520996 73.19596862792969 23.68804740905762 71.30204772949219 C 19.36230278015137 69.47240447998047 15.47705841064453 66.85280609130859 12.1402702331543 63.51601409912109 C 8.803469657897949 60.17921447753906 6.1838698387146 56.29397964477539 4.354236602783203 51.96822357177734 C 2.460303068161011 47.49048233032227 1.500003099441528 42.73307037353516 1.500003099441528 37.8281364440918 C 1.500003099441528 32.92321395874023 2.460303068161011 28.16579246520996 4.354236602783203 23.68804740905762 C 6.1838698387146 19.36230278015137 8.803469657897949 15.47706985473633 12.1402702331543 12.1402702331543 C 15.47706985473633 8.803469657897949 19.36230278015137 6.1838698387146 23.68804740905762 4.354236602783203 C 28.16579246520996 2.460303068161011 32.92321395874023 1.500003099441528 37.8281364440918 1.500003099441528 C 42.73307037353516 1.500003099441528 47.49048233032227 2.460303068161011 51.96822357177734 4.354236602783203 C 56.29397964477539 6.1838698387146 60.17921447753906 8.803469657897949 63.51601409912109 12.1402702331543 C 66.85280609130859 15.47705841064453 69.47240447998047 19.36230278015137 71.30204772949219 23.68804740905762 C 73.19596862792969 28.16579246520996 74.15627288818359 32.92320251464844 74.15627288818359 37.8281364440918 C 74.15627288818359 42.73307037353516 73.19596862792969 47.49048233032227 71.30204772949219 51.96822357177734 C 69.47240447998047 56.29397964477539 66.85280609130859 60.17921447753906 63.51601409912109 63.51601409912109 C 60.17921447753906 66.85280609130859 56.29397964477539 69.47240447998047 51.96822357177734 71.30204772949219 C 47.49048233032227 73.19596862792969 42.73307037353516 74.15627288818359 37.8281364440918 74.15627288818359 Z" stroke="none"/>
                              <path d="M 37.8281364440918 3 C 33.12504959106445 3 28.56423568725586 3.920433044433594 24.27237319946289 5.735733032226562 C 20.12542343139648 7.48974609375 16.40044784545898 10.00139617919922 13.20092391967773 13.20092391967773 C 10.00139617919922 16.40044784545898 7.48974609375 20.12542343139648 5.735733032226562 24.27237319946289 C 3.920433044433594 28.56423568725586 3 33.12504959106445 3 37.8281364440918 C 3 42.53122329711914 3.920433044433594 47.09203720092773 5.735733032226562 51.3838996887207 C 7.48974609375 55.53084945678711 10.00139617919922 59.25582122802734 13.20092391967773 62.45534896850586 C 16.40044784545898 65.65487670898438 20.12542343139648 68.16652679443359 24.27237319946289 69.92053985595703 C 28.56423568725586 71.73583984375 33.12504959106445 72.65627288818359 37.8281364440918 72.65627288818359 C 42.53122329711914 72.65627288818359 47.09203720092773 71.73583984375 51.3838996887207 69.92053985595703 C 55.53084945678711 68.16652679443359 59.25582122802734 65.65487670898438 62.45534896850586 62.45534896850586 C 65.65487670898438 59.25582122802734 68.16652679443359 55.53084945678711 69.92053985595703 51.3838996887207 C 71.73583984375 47.09203720092773 72.65627288818359 42.53122329711914 72.65627288818359 37.8281364440918 C 72.65627288818359 33.12504959106445 71.73583984375 28.56423568725586 69.92053985595703 24.27237319946289 C 68.16652679443359 20.12542343139648 65.65487670898438 16.40044784545898 62.45534896850586 13.20092391967773 C 59.25582122802734 10.00139617919922 55.53084945678711 7.48974609375 51.3838996887207 5.735733032226562 C 47.09203720092773 3.920433044433594 42.53122329711914 3 37.8281364440918 3 M 37.8281364440918 0 C 58.72003555297852 0 75.65627288818359 16.93623733520508 75.65627288818359 37.8281364440918 C 75.65627288818359 58.72003555297852 58.72003555297852 75.65627288818359 37.8281364440918 75.65627288818359 C 16.93623733520508 75.65627288818359 0 58.72003555297852 0 37.8281364440918 C 0 16.93623733520508 16.93623733520508 0 37.8281364440918 0 Z" stroke="none" fill="#4a665c"/>
                            </g>
                          </g>
                        </g>
                      </g>
                    </g>
                  </g>
                </g>
              </g>
            </g>
          </g>
        </g>
      </g>
      <g id="planificacion_1_" data-name="planificacion (1)" transform="translate(218 2355)">
        <g id="Group_1182299" data-name="Group 1182299" transform="translate(0.724 0.724)">
          <path id="Path_1042191" data-name="Path 1042191" d="M74.408,35.252l-1.87-.281a8.726,8.726,0,0,0-1.375-3.319l1.124-1.522a.669.669,0,0,0-.065-.871l-.968-.968a.669.669,0,0,0-.871-.065L68.861,29.35a8.726,8.726,0,0,0-3.319-1.375l-.281-1.87a.669.669,0,0,0-.662-.57H63.23a.669.669,0,0,0-.662.57l-.281,1.87a8.724,8.724,0,0,0-3.319,1.375l-1.522-1.124a.669.669,0,0,0-.871.065l-.968.968a.669.669,0,0,0-.065.871l1.124,1.522a8.726,8.726,0,0,0-1.375,3.319l-1.87.281a.669.669,0,0,0-.57.662v1.369a.669.669,0,0,0,.57.662l1.87.281a8.724,8.724,0,0,0,1.375,3.319l-1.124,1.522a.669.669,0,0,0,.065.871l.968.968a.669.669,0,0,0,.871.065l1.522-1.124a8.726,8.726,0,0,0,3.319,1.375l.281,1.87a.669.669,0,0,0,.662.57H64.6a.669.669,0,0,0,.662-.57l.281-1.87a8.726,8.726,0,0,0,3.319-1.375l1.522,1.124a.669.669,0,0,0,.871-.065l.968-.968a.669.669,0,0,0,.065-.871l-1.124-1.522a8.726,8.726,0,0,0,1.375-3.319l1.87-.281a.669.669,0,0,0,.57-.662V35.913A.669.669,0,0,0,74.408,35.252ZM63.915,41.026A4.428,4.428,0,1,1,68.343,36.6,4.428,4.428,0,0,1,63.915,41.026Z" transform="translate(-48.795 -23.949)" fill="#ffe27a"/>
          <circle id="Ellipse_13108" data-name="Ellipse 13108" cx="2.42" cy="2.42" r="2.42" transform="translate(35.971)" fill="#ff4755"/>
          <path id="Path_1042192" data-name="Path 1042192" d="M408.07,27.355a2.42,2.42,0,0,1-2.279-1.606,2.42,2.42,0,1,0,4.558,0A2.42,2.42,0,0,1,408.07,27.355Z" transform="translate(-369.679 -24.143)" fill="#fc2b3a"/>
          <circle id="Ellipse_13109" data-name="Ellipse 13109" cx="2.42" cy="2.42" r="2.42" transform="translate(35.971 20.459)" fill="#ff4755"/>
          <path id="Path_1042193" data-name="Path 1042193" d="M408.07,253.521a2.42,2.42,0,0,1-2.279-1.606,2.42,2.42,0,1,0,4.558,0A2.42,2.42,0,0,1,408.07,253.521Z" transform="translate(-369.679 -229.851)" fill="#fc2b3a"/>
          <g id="Group_1182298" data-name="Group 1182298" transform="translate(0 26.74)">
            <path id="Path_1042194" data-name="Path 1042194" d="M314.869,322.137a1.848,1.848,0,0,1,1.846,1.849l4.351-2.293a1.65,1.65,0,1,0-1.551-2.912l-6.189,3.356h1.544Z" transform="translate(-285.706 -317.228)" fill="#f4b184"/>
            <path id="Path_1042195" data-name="Path 1042195" d="M230.206,308.513l8.986-4.713a1.722,1.722,0,0,1,1.616,3.042l-3.083,1.671Z" transform="translate(-210.106 -303.603)" fill="#f4b184"/>
            <path id="Path_1042196" data-name="Path 1042196" d="M281.14,319.029l3.083-1.671a1.725,1.725,0,0,0,.763-2.192l-7.047,3.864Z" transform="translate(-253.521 -314.119)" fill="#eaa678"/>
            <path id="Path_1042197" data-name="Path 1042197" d="M345.742,335.4l4.351-2.293a1.651,1.651,0,0,0,.8-1.976l-5.651,3A1.843,1.843,0,0,1,345.742,335.4Z" transform="translate(-314.733 -328.643)" fill="#eaa678"/>
            <path id="Path_1042198" data-name="Path 1042198" d="M219.073,334.872a1.848,1.848,0,0,1-1.615,1.835l-11.486,1.455,4.878.588a21.753,21.753,0,0,0,13.173-2.585l4.469-2.484a1.669,1.669,0,0,0-1.585-2.938Z" transform="translate(-188.064 -328.113)" fill="#f4b184"/>
            <path id="Path_1042199" data-name="Path 1042199" d="M228.492,343.491a1.67,1.67,0,0,0,.706-2.154l-10.672,5.72-3.952-.174-8.6,1.089,4.878.588a21.753,21.753,0,0,0,13.173-2.585Z" transform="translate(-188.064 -337.924)" fill="#eaa678"/>
            <path id="Path_1042200" data-name="Path 1042200" d="M12.915,350.556a18.458,18.458,0,0,1,7.527-3.619,14.186,14.186,0,0,1,7.659.794h9.062a1.85,1.85,0,0,1,.232,3.684L25.908,352.87l4.878.588a21.753,21.753,0,0,0,13.173-2.585l6.1-3.393a1.916,1.916,0,0,1,1.805,3.379l-8.925,4.863c-4.473,2.438-9.566,5.633-14.638,5.181l-15.39-1.374H8v-8.973Z" transform="translate(-8 -342.821)" fill="#ffc89f"/>
            <g id="Group_1182297" data-name="Group 1182297" transform="translate(0 5.054)">
              <path id="Path_1042201" data-name="Path 1042201" d="M52.48,359.62c-.038-.051-.079-.1-.122-.145a1.9,1.9,0,0,1-.923,1.15l-8.925,4.863c-4.473,2.438-9.566,5.633-14.638,5.181l-15.39-1.374H8v1.834h4.915l15.39,1.374c5.072.453,10.165-2.743,14.638-5.181l8.925-4.863A1.918,1.918,0,0,0,52.48,359.62Z" transform="translate(-8 -359.475)" fill="#f7bc94"/>
            </g>
          </g>
          <path id="Path_1042202" data-name="Path 1042202" d="M135.053,157.647a4.446,4.446,0,0,0-.076-.814,4.427,4.427,0,0,1-8.7,0,4.428,4.428,0,1,0,8.78.814Z" transform="translate(-115.505 -143.37)" fill="#f9cf58"/>
          <circle id="Ellipse_13110" data-name="Ellipse 13110" cx="2.42" cy="2.42" r="2.42" transform="translate(35.971 10.229)" fill="#ff4755"/>
          <path id="Path_1042203" data-name="Path 1042203" d="M408.07,140.439a2.42,2.42,0,0,1-2.279-1.606,2.42,2.42,0,1,0,4.558,0A2.421,2.421,0,0,1,408.07,140.439Z" transform="translate(-369.679 -126.998)" fill="#fc2b3a"/>
        </g>
        <g id="Group_1182300" data-name="Group 1182300" transform="translate(0 0)">
          <path id="Path_1042204" data-name="Path 1042204" d="M35.367,366.27c-.46.251-.927.509-1.4.771-4,2.216-8.528,4.728-12.882,4.339L5.665,370l-.06,0H1.36V362.37H5.6a.68.68,0,0,0,.439-.161,18.411,18.411,0,0,1,3.076-1.991.68.68,0,1,0-.627-1.206,20.446,20.446,0,0,0-3.129,2H.68a.68.68,0,0,0-.68.68v8.991a.68.68,0,0,0,.68.68H5.574l15.39,1.374q.521.047,1.041.046c4.414,0,8.757-2.408,12.621-4.55.469-.26.933-.517,1.39-.767a.68.68,0,0,0-.65-1.194Z" transform="translate(0 -326.466)"/>
          <path id="Path_1042205" data-name="Path 1042205" d="M152.636,301.655a2.584,2.584,0,0,0-3.069-.834,2.349,2.349,0,0,0-3.438-1.932l-1.617.852a2.329,2.329,0,0,0-3.435-1.926l-1.208.655a2.4,2.4,0,0,0-3.515-2.019l-8.724,4.575a14.933,14.933,0,0,0-7.762-.715,14.48,14.48,0,0,0-1.93.5.68.68,0,1,0,.431,1.289,13.116,13.116,0,0,1,1.748-.457,13.657,13.657,0,0,1,7.271.747.68.68,0,0,0,.279.06h9.08a1.173,1.173,0,0,1,.147,2.337l-11.509,1.458a.68.68,0,0,0,0,1.349l4.888.589a22.34,22.34,0,0,0,13.611-2.671l6.108-3.4a1.23,1.23,0,0,1,1.557.353,1.25,1.25,0,0,1-.4,1.838l-6.553,3.571a.68.68,0,0,0,.651,1.194l6.553-3.571a2.6,2.6,0,0,0,.831-3.851Zm-15.651-4a1.036,1.036,0,0,1,1.324.306,1.053,1.053,0,0,1-.343,1.541l-2.938,1.593h-4.6Zm.618,3.59,4.122-2.235a.969.969,0,0,1,1.292.352.98.98,0,0,1-.378,1.367l-3.575,1.884A2.544,2.544,0,0,0,137.6,301.244Zm5.623,3.084a20.977,20.977,0,0,1-12.179,2.574l6.017-.762a2.537,2.537,0,0,0,2.175-2.083l7.524-3.966a.992.992,0,0,1,.94,1.748Z" transform="translate(-106.846 -269.381)"/>
          <path id="Path_1042206" data-name="Path 1042206" d="M123.546,101.291a5.072,5.072,0,0,0,2.2-.494.68.68,0,1,0-.584-1.228,3.723,3.723,0,0,1-1.611.362,3.755,3.755,0,1,1,3.292-1.945.68.68,0,1,0,1.19.657,5.117,5.117,0,1,0-4.482,2.648Z" transform="translate(-107.716 -82.821)"/>
          <path id="Path_1042207" data-name="Path 1042207" d="M46.088,15.375l1.409.212a9.348,9.348,0,0,0,1.118,2.7l-.847,1.147a1.342,1.342,0,0,0,.131,1.757l.97.97a1.342,1.342,0,0,0,1.757.131l1.146-.847a9.347,9.347,0,0,0,2.7,1.118l.212,1.409a1.342,1.342,0,0,0,1.335,1.149h1.372a1.342,1.342,0,0,0,1.335-1.15l.212-1.409a9.348,9.348,0,0,0,2.7-1.118l1.147.847a1.342,1.342,0,0,0,1.757-.131l.97-.97a1.342,1.342,0,0,0,.131-1.757l-.847-1.146a9.344,9.344,0,0,0,1.118-2.7l1.409-.212a1.342,1.342,0,0,0,1.15-1.335v-.006H72.5V22.7a1.587,1.587,0,0,0,1.585,1.585h2.9a3.1,3.1,0,1,0,0-1.36h-2.9a.226.226,0,0,1-.226-.226V14.033h3.13a3.1,3.1,0,1,0,0-1.36h-3.13V4.01a.226.226,0,0,1,.226-.226h2.9a3.1,3.1,0,1,0,0-1.36h-2.9A1.587,1.587,0,0,0,72.5,4.01v8.664H68.467v-.006a1.342,1.342,0,0,0-1.149-1.335l-1.409-.212a9.347,9.347,0,0,0-1.118-2.7l.847-1.146a1.342,1.342,0,0,0-.131-1.757l-.97-.97a1.342,1.342,0,0,0-1.757-.131l-1.146.847a9.347,9.347,0,0,0-2.7-1.118l-.212-1.409a1.342,1.342,0,0,0-1.335-1.15H56.017a1.342,1.342,0,0,0-1.335,1.15L54.47,4.148a9.349,9.349,0,0,0-2.7,1.118l-1.146-.847a1.342,1.342,0,0,0-1.757.131l-.97.97a1.342,1.342,0,0,0-.131,1.757l.847,1.146a9.346,9.346,0,0,0-1.118,2.7l-1.409.212a1.342,1.342,0,0,0-1.149,1.335v1.372a1.342,1.342,0,0,0,1.15,1.335Zm33.931,6.484A1.745,1.745,0,1,1,78.275,23.6a1.747,1.747,0,0,1,1.745-1.745Zm0-10.249a1.745,1.745,0,1,1-1.745,1.745A1.747,1.747,0,0,1,80.019,11.609Zm0-10.249A1.745,1.745,0,1,1,78.275,3.1a1.747,1.747,0,0,1,1.745-1.745ZM46.3,12.676l1.866-.281a.68.68,0,0,0,.567-.547A8.021,8.021,0,0,1,50,8.781a.68.68,0,0,0-.014-.788L48.867,6.476l.959-.958,1.518,1.121a.68.68,0,0,0,.788.014A8.022,8.022,0,0,1,55.2,5.382a.68.68,0,0,0,.547-.567l.281-1.866h1.356l.281,1.866a.68.68,0,0,0,.547.567,8.02,8.02,0,0,1,3.067,1.271.68.68,0,0,0,.788-.014l1.518-1.121.959.958L63.418,7.994a.68.68,0,0,0-.014.788,8.021,8.021,0,0,1,1.271,3.067.68.68,0,0,0,.567.547l1.866.281v1.356l-1.866.281a.68.68,0,0,0-.567.547A8.021,8.021,0,0,1,63.4,17.926a.68.68,0,0,0,.014.788l1.121,1.518-.959.959-1.518-1.121a.68.68,0,0,0-.788-.014,8.021,8.021,0,0,1-3.067,1.271.68.68,0,0,0-.547.567l-.281,1.866H56.025l-.281-1.866a.68.68,0,0,0-.547-.567,8.021,8.021,0,0,1-3.067-1.271.68.68,0,0,0-.788.014L49.825,21.19l-.959-.959,1.121-1.518A.68.68,0,0,0,50,17.926a8.02,8.02,0,0,1-1.271-3.067.68.68,0,0,0-.567-.547L46.3,14.032Z" transform="translate(-40.874 0)"/>
        </g>
      </g>
    </g>
  </g>
</svg>
